<?xml version="1.0" encoding="utf-8"?>
<!-- Generator: Adobe Illustrator 16.0.0, SVG Export Plug-In . SVG Version: 6.00 Build 0)  -->
<!DOCTYPE svg PUBLIC "-//W3C//DTD SVG 1.1//EN" "http://www.w3.org/Graphics/SVG/1.1/DTD/svg11.dtd">
<svg version="1.1" id="Layer_1" xmlns="http://www.w3.org/2000/svg" xmlns:xlink="http://www.w3.org/1999/xlink" x="0px" y="0px"
	 width="612px" height="792px" viewBox="0 0 612 792" enable-background="new 0 0 612 792" xml:space="preserve">
<g>
	<g>
		<path fill="#FFFFFF" d="M209.8,407.2c-51.6,0-95.7,18.5-132.3,55.6C41,499.8,22.8,544.6,22.8,597c0,52.5,18.2,97.2,54.7,134.3
			c36.6,37.1,80.7,55.6,132.3,55.6c51.6,0,95.8-18.5,132.3-55.6c36.5-37.1,54.8-81.8,54.8-134.3c0-52.4-18.3-97.2-54.8-134.2
			C305.6,425.7,261.4,407.2,209.8,407.2z"/>
	</g>
	<g>
		<path fill="#ED1C24" d="M231,422.5c0.6-2.7-0.8-4.4-4.1-4.8c-3-0.5-4.6,0.6-4.8,3.3l-2.7,27.4c-0.2,1.3-0.5,1.9-1,2
			c-0.5,0-0.8-0.1-1.1-0.2c-0.3-0.4-0.5-1-0.4-1.8l2-27.2c0.4-2.8-1.1-4.3-4.4-4.5c-3-0.3-4.5,0.9-4.6,3.6l-0.8,27.5
			c0,1.3-0.3,2-0.8,2.1c-0.7,0.1-1.2,0-1.5-0.3c-0.1-0.3-0.2-0.7-0.2-1.2l0.1-27.3c0.2-2.8-1.4-4.2-4.7-4.2c-3,0-4.4,1.3-4.3,4
			l0.3,6.5h-0.1l0.9,21c0.1,1.3-0.1,2-0.7,2.1c-0.5,0.1-0.9,0.1-1.3-0.1c-0.2-0.3-0.3-0.8-0.3-1.3l-2.3-27.2
			c-0.1-2.8-1.8-4.1-5.1-3.8c-3,0.2-4.3,1.6-3.9,4.3l3.5,27.3c0.2,1.3,0,2-0.5,2.2c-0.6,0.2-1.1,0.2-1.5-0.1
			c-0.2-0.3-0.3-0.7-0.4-1.2l-3.9-27c-0.3-2.8-2-4-5.3-3.5c-3,0.4-4.2,1.9-3.7,4.5l5.2,27.1c0.2,1.2,0.1,2-0.4,2.2
			c-0.4,0.1-0.8,0.2-1.1,0.1c-0.5-0.2-0.8-0.8-1-1.6l-5.7-26.7c-0.5-2.7-2.3-3.8-5.6-3.1c-2.9,0.6-4,2.2-3.3,4.8l7,26.7
			c0.4,1.2,0.3,1.9-0.2,2.1c-0.4,0.2-0.8,0.3-1.1,0.3c-0.4-0.2-0.8-0.7-1-1.5l-7.6-26.2c-0.7-2.8-2.6-3.7-5.8-2.7
			c-2.9,0.7-3.8,2.4-3,5l8.9,26c0.4,1.2,0.4,2,0,2.2c-0.6,0.4-1.1,0.5-1.5,0.3c-0.3-0.3-0.5-0.6-0.6-1l-9.4-25.6
			c-0.9-2.7-2.9-3.5-6-2.3c-2.8,1-3.7,2.7-2.6,5.2l2.6,6l-0.1,0.1l8.2,19.3c0.5,1.1,0.5,1.9,0,2.2c-0.4,0.3-0.8,0.4-1.2,0.4
			c-0.3-0.3-0.6-0.6-0.8-1.2l-11.6-24.6c-1.1-2.6-3.1-3.2-6.1-1.8c-2.5,1.1-3.3,2.7-2.4,4.9c0,0.1,0.1,0.3,0.2,0.5l2.6,4.9h-0.1
			l10.4,19.5c0.1,0.2,0.2,0.5,0.3,0.7c0,0.5-0.2,0.9-0.6,1.2c-0.9,0.4-1.7,0-2.3-1.2L124.2,443c-0.5-0.8-1-1.5-1.6-1.8
			c-1-0.6-2.2-0.6-3.6,0c-0.4,0.1-0.7,0.2-1.1,0.4c-2.6,1.4-3.2,3.2-1.7,5.5l14.6,23.4c0.7,1.1,0.9,1.8,0.5,2.2
			c-0.4,0.3-0.7,0.4-1,0.5c-0.5-0.1-1-0.4-1.5-1.2l-15.1-22.8c-1.4-2.4-3.6-2.7-6.4-1c-2.5,1.5-2.9,3.4-1.3,5.6l16.3,22.4
			c0.7,1,0.9,1.7,0.5,2.1c-0.3,0.3-0.6,0.5-0.9,0.6c-0.5-0.1-1-0.4-1.5-1.1L103.7,456c-1.6-2.3-3.7-2.5-6.4-0.5
			c-2.4,1.7-2.7,3.6-1,5.7l17.9,21.2c0.8,1,1,1.7,0.7,2.1c-0.4,0.5-0.9,0.7-1.3,0.7c-0.3-0.1-0.6-0.4-0.9-0.7l-18.2-20.7
			c-1.7-2.2-3.9-2.2-6.4-0.1c-2.3,1.9-2.5,3.8-0.6,5.8l4.6,4.7v0.1l14.7,15.2c0.9,0.9,1.2,1.6,0.9,2c-0.3,0.4-0.7,0.7-1,0.8
			c-0.4-0.1-0.8-0.4-1.2-0.7l-19.9-19.1c-1.9-2-4.1-1.9-6.4,0.5c-2.1,2-2.1,4-0.1,5.7L98.7,496c1.5,1.2,1.9,2.2,1.3,3
			c-0.5,0.5-1,0.6-1.6,0.3c-0.1,0-0.2-0.1-0.2-0.1l-7.9-6.6l-13.5-11.7c-2.1-1.9-4.2-1.6-6.3,0.9c-2,2.2-2,4.1,0.2,5.8l6,4.7h-0.2
			l15.8,12.3c1,0.8,1.4,1.5,1.2,2c-0.1,0-0.1,0.1-0.2,0.1c-0.5,0.4-1.2,0.4-2.2-0.3l-18.4-12.8l0,0l-4-2.8c-2.2-1.7-4.2-1.2-6.1,1.5
			c-1.8,2.5-1.5,4.4,0.8,5.8l24.1,16.1l1-2.4l-17.7-12c-1.3-0.9-1.8-1.7-1.3-2.7c0.7-1.2,1.5-1.5,2.7-0.8l2.5,1.8l22,16.1
			c1,0.6,2.2,0.1,3.7-1.6c0.1-0.3,0.3-0.5,0.4-0.7c0-0.1,0-0.1,0.1-0.1c1-1.8,0.8-3.2-0.7-4.3l-12-9l-10.3-8.4c-1.3-1-1.6-2-1-2.9
			c0.7-1.1,1.7-1.3,2.7-0.5l0.1,0.1v0.1l22.7,19c0.5,0.4,0.9,0.6,1.4,0.7l0.2,0.2c0.9,0.7,2.2,0.3,3.8-1.4c1.2-1.7,1.1-3.2,0-4.2
			l-21.5-19.5c-1.2-1.1-1.5-2.1-0.9-2.9c0.8-1.1,1.8-1.2,2.8-0.3l21.7,21.1c0.5,0.4,1.2,0.5,2,0.1c0.7,0,1.6-0.5,2.4-1.3
			c1.3-1.6,1.3-3,0-4.3l-6.8-7L94.4,473c-1.1-1.2-1.3-2.2-0.6-2.9c0.6-0.7,1.2-1,1.9-0.7l20.8,23.2c0.4,0.4,0.9,0.6,1.5,0.5
			c0.8,0.2,1.8-0.2,2.9-1c1.4-1.5,1.6-2.9,0.4-4.3l-18.4-22.6c-1-1.3-1.1-2.3-0.4-3c0.8-0.7,1.5-0.9,2.2-0.5l-0.1,0.1l19.3,24.8
			c0.6,0.6,1.5,0.7,2.8,0.1c0.4-0.1,0.9-0.4,1.3-0.7c1.6-1.4,1.8-2.8,0.8-4.3l-16.5-23.5c-1-1.3-1.1-2.3-0.3-3
			c0.9-0.6,1.6-0.7,2.3-0.2h-0.1l17.6,26c0.5,0.9,1.9,0.8,4-0.3l0,0c1-0.7,1.5-1.5,1.5-2.3c0.2-0.6,0-1.1-0.3-1.7L122.1,452
			c-0.8-1.4-0.8-2.4,0-3c1.2-0.8,2.1-0.7,2.8,0.5l15.5,27.1c0.6,1,1.9,1,4,0c1.7-1.3,2.2-2.6,1.5-4L133,446.9
			c-0.8-1.4-0.7-2.5,0.2-3c1.1-0.7,2.1-0.5,2.7,0.7l12.6,27.2c0.3,0.6,0.9,0.9,1.8,0.8c0.7,0.3,1.6,0.1,2.7-0.4c1.8-1,2.3-2.3,1.6-4
			l-3.8-8.9l-7.1-17.7c0-0.2-0.1-0.3-0.1-0.4c-0.5-1.3-0.3-2.2,0.6-2.6c0.8-0.5,1.5-0.5,2,0l11,29c0.2,0.4,0.6,0.8,1.2,0.9
			c0.7,0.5,1.7,0.5,3,0c1.9-0.8,2.6-2.1,2-3.8l-8.9-27.6c-0.5-1.6-0.2-2.5,0.7-3c1-0.4,1.7-0.3,2.2,0.3l-0.1,0.1l9,29.9
			c0.2,0.8,1.1,1.2,2.6,1.1c0.4,0,0.9-0.1,1.4-0.2c2-0.8,2.7-2,2.2-3.8l-6.8-27.7c-0.4-1.6-0.1-2.6,0.9-2.9c1-0.4,1.7-0.2,2.2,0.5
			l0,0l6.8,30.4c0.3,1.1,1.6,1.5,3.9,1.2c0,0,0,0,0-0.1c1.2-0.3,1.9-0.8,2.3-1.6c0.3-0.5,0.4-1,0.3-1.7l-4.9-28.3
			c-0.3-1.7,0.1-2.6,1.1-2.9c0.9-0.2,1.6-0.1,2,0.4l-0.2,0.1l5.1,30.7c0,0.6,0.4,1,0.9,1.2c0.6,0.5,1.6,0.7,2.9,0.5
			c1.6-0.4,2.5-1.2,2.7-2.5c0-0.3,0-0.6,0-0.9l-3.1-28.6c-0.2-1.7,0.2-2.6,1.3-2.8c1.3-0.3,2.1,0.2,2.3,1.6l2.2,29.9
			c0.1,0.6,0.5,1.1,1.4,1.4c0.6,0.5,1.5,0.6,2.7,0.6c2-0.4,3-1.4,2.9-3.2l-0.5-9.7l-0.4-19.1c0-1.6,0.5-2.5,1.5-2.7
			c1-0.1,1.6,0.2,1.9,0.8l0.1,31c0,0.5,0.3,0.9,0.8,1.2c0.5,0.8,1.5,1.1,2.9,1.2c2-0.2,3.1-1.2,3.1-3l1.4-28.9
			c0.1-1.6,0.6-2.5,1.7-2.5c1-0.1,1.7,0.3,1.9,1h-0.1l-2,31.1c-0.1,0.9,0.6,1.6,2,2c0.4,0.1,0.9,0.2,1.5,0.3c2,0,3.1-0.9,3.3-2.7
			l3.4-28.4c0.2-1.6,0.8-2.4,1.8-2.4c1.1,0,1.7,0.4,1.9,1.2h-0.1l-4.2,30.9c-0.1,1.2,0.9,2,3.2,2.5h0.1c1.2,0.1,2.1-0.2,2.7-0.7
			c0.4-0.4,0.7-0.9,0.8-1.6l5.4-28.2c0.3-1.6,1-2.4,2-2.3c1,0.1,1.6,0.5,1.8,1.3l-6,30.1c-0.3,1.6,0.6,2.6,2.7,3.2
			c0.6,0,1.2,0,1.6-0.1c1.5-0.1,2.4-0.8,2.7-2.1l6.6-28c0.4-1.6,1.1-2.3,2.1-2.2c1.4,0.2,1.9,1,1.7,2.3l-7.9,28.9
			c-0.2,0.7,0.1,1.3,0.8,1.9c0.4,0.6,1.2,1.1,2.3,1.4c2.1,0.4,3.3-0.3,3.9-2.1l2.8-9.3l5.9-18.1c0.5-1.5,1.3-2.2,2.3-2
			s1.5,0.7,1.6,1.4l-10.2,29.2c-0.2,0.5-0.1,1,0.3,1.5c0.2,0.8,1,1.5,2.3,2c2,0.5,3.3-0.1,4-1.7l10.9-26.9c0.6-1.5,1.4-2.1,2.4-1.8
			c1,0.3,1.5,0.9,1.5,1.7l-0.1-0.1L261.2,467c-0.4,0.8,0.1,1.6,1.2,2.5c0.4,0.3,0.8,0.5,1.3,0.8c2,0.6,3.3,0.2,4.1-1.5l12.6-25.6
			c0.7-1.5,1.5-2,2.5-1.7c1,0.4,1.5,1,1.4,1.8l0,0L269.9,471c-0.5,1,0.3,2.1,2.3,3.4c0,0,0,0,0.1,0c1,0.5,2,0.6,2.7,0.2
			c0.5-0.2,0.9-0.5,1.3-1.1l14.5-24.8c0.8-1.5,1.7-2,2.6-1.5c1,0.4,1.4,1,1.3,1.8l-8.2,14l-7.5,12.4c-0.8,1.4-0.3,2.6,1.4,3.8
			c0.7,0.3,1.2,0.5,1.7,0.6c1.3,0.3,2.4-0.1,3.1-1.1l15.8-24.1c0.9-1.3,1.8-1.8,2.7-1.3c1.2,0.7,1.5,1.6,0.8,2.7l-17.2,24.5
			c-0.4,0.5-0.4,1.2,0.1,2c0.2,0.7,0.7,1.4,1.7,2.1c1.8,1.1,3.2,0.9,4.3-0.6l5.8-7.8l11.8-15c1-1.3,2-1.6,2.8-1.1
			c0.9,0.6,1.2,1.2,1.1,1.9l-19.7,23.9c-0.3,0.4-0.4,0.9-0.2,1.5c-0.1,0.8,0.4,1.7,1.5,2.7c1.7,1.1,3.1,1.1,4.4-0.3l19.4-21.4
			c1.1-1.2,2-1.5,2.9-0.9c0.8,0.6,1.1,1.3,0.8,2h-0.1l-21.3,22.7c-0.7,0.6-0.5,1.5,0.3,2.7c0.2,0.4,0.5,0.8,0.9,1.2
			c1.6,1.3,3.1,1.4,4.4,0.1l20.6-19.8c1.1-1.1,2.1-1.4,3-0.7c0.8,0.7,1,1.4,0.6,2.2v-0.1l-22.9,21.3c-0.9,0.7-0.6,2,0.9,3.8
			c0,0,0,0,0,0.1c0.9,0.8,1.7,1.2,2.5,1.1c0.6,0,1.1-0.2,1.7-0.6l22.1-18.4c1.2-1.1,2.2-1.2,3-0.5c1,1,1,2,0,2.8l-23.2,18.8
			c-1.3,1-1.3,2.4,0,4.1c1.1,1.2,2.3,1.6,3.4,1.2c0.7,0.1,1.4,0,2.1-0.5l23.1-17.2c1.3-1,2.3-1.1,3-0.4c0.8,1,0.8,1.8,0.1,2.7
			l-0.2-0.3l-25.6,17.8c-1,0.7-0.9,2,0.3,4c0.9,1,1.7,1.5,2.6,1.6c0.8,0.3,1.7,0.1,2.5-0.4l16.1-10.6l7.4-4.6c1.4-0.8,2.4-0.8,3,0
			c0.8,1.1,0.7,2-0.4,2.8l-23.6,13.9l1.3,1.9c3.2-1.8,4.9-2.8,5.2-2.9l23.6-13.7c2.4-1.3,2.8-3.4,1.2-6.3c-1.5-2.6-3.3-3.2-5.6-1.7
			l-23.2,15c-0.6,0.4-1.1,0.6-1.5,0.6c-0.1,0-0.1-0.1-0.2-0.1c-0.5-0.9-0.3-1.7,0.9-2.5l22.3-15.7c2.3-1.5,2.5-3.6,0.7-6.3
			c-1.7-2.5-3.7-2.9-5.8-1.2l-5.8,4.5h-0.1L327,504.4c-0.4,0.3-0.7,0.5-0.9,0.7c-0.3,0-0.6,0-0.7-0.2c-1.1-0.9-1-1.9,0.3-2.9
			l20.3-16.3c2.2-1.6,2.3-3.7,0.3-6.3c-1.8-2.4-3.8-2.7-5.8-0.9l-20.8,18c-1,0.8-1.7,1.1-2.1,0.7c-0.3-0.2-0.6-0.5-0.7-0.8
			c0-0.5,0.3-1.1,1-1.7l20.2-18.3c2.1-1.8,2.1-3.9-0.1-6.4c-2-2.2-4-2.4-5.9-0.5L312.6,489c-0.9,0.9-1.6,1.2-2,0.9
			c-0.4-0.3-0.6-0.6-0.8-0.8c0-0.5,0.3-1,0.9-1.7l18.8-19.7c2.1-1.9,1.9-4-0.5-6.3c-2.1-2.1-4.1-2.1-5.8-0.1L305,482
			c-0.8,1-1.5,1.3-1.9,1.1c-0.6-0.4-0.9-0.8-1-1.2c0.1-0.3,0.3-0.7,0.6-1l17.5-21c1.9-2,1.6-4.1-1-6.3c-2.3-1.9-4.2-1.8-5.8,0.4
			l-4,5.2l0,0l-12.7,16.7c-0.8,1-1.3,1.4-1.8,1.2c-0.5-0.3-0.8-0.6-1-0.9c0-0.4,0.2-0.8,0.5-1.3l15.6-22.4c1.8-2.2,1.2-4.2-1.5-6.1
			c-2.4-1.8-4.3-1.5-5.7,0.8l-14.7,23.3c-0.5,0.7-1,1.2-1.4,1.4c-0.2,0-0.3,0-0.4-0.1c-1.3-0.5-1.5-1.4-0.7-2.8l14.2-22.9
			c1.1-1.8,1.1-3.5-0.4-4.9c-0.5-0.4-1-0.8-1.5-1.2c-2.5-1.6-4.5-1.2-5.7,1.1l-13.5,24.1c-0.6,1.1-1.1,1.6-1.6,1.4
			c-0.5-0.2-0.8-0.4-1-0.6c-0.2-0.5-0.1-1.1,0.3-1.9l12.7-24.1c1.5-2.4,0.7-4.4-2.2-5.9c-2.7-1.5-4.5-1-5.6,1.5l-11.8,24.9
			c-0.6,1.2-1.1,1.7-1.6,1.6c-0.4-0.2-0.7-0.3-1-0.5c-0.1-0.5-0.1-1.1,0.3-1.9l11-24.9c1.2-2.5,0.3-4.5-2.7-5.8
			c-2.7-1.3-4.6-0.6-5.6,1.9l-9.9,25.7c-0.4,1.2-0.9,1.7-1.4,1.6c-0.7-0.1-1.2-0.4-1.3-0.8c-0.1-0.3,0-0.7,0.1-1.1l9.3-25.7
			c1.1-2.5,0.1-4.4-3-5.5c-2.8-1.1-4.6-0.3-5.4,2.3l-1.9,6.3h-0.1l-6.1,20c-0.4,1.2-0.9,1.8-1.4,1.7c-0.5,0-0.9-0.2-1.2-0.5
			c-0.1-0.4-0.1-0.8,0.1-1.4l7-26.3c0.8-2.7-0.4-4.5-3.6-5.3c-2.9-0.8-4.6,0.1-5.1,2.7l-5.8,27c-0.1,0.2-0.1,0.4-0.2,0.5
			c-0.2,0.5-0.4,0.9-0.6,1.2c-0.1,0.1-0.3,0.1-0.4,0.1c-1.4,0-2-0.8-1.7-2.4l5.7-26.3c0.8-2.7-0.5-4.4-3.7-5.1
			c-2.9-0.7-4.6,0.3-5,2.9l-4.7,27.2c-0.2,1.3-0.6,1.9-1.1,1.9c-0.4,0-0.8-0.1-1.1-0.2c-0.3-0.4-0.4-1.1-0.3-1.9L231,422.5z"/>
		<path fill="#ED1C24" d="M357.9,699.4c1.7-2.6,1.8-4.4,0.4-5.4l-26.2-17.6l-1.2,2.1l17.8,11.7c1.1,0.9,1.4,1.9,0.8,2.8
			c-0.5,1-1.5,1-2.9-0.1l-12.8-8.2l-10.6-7.9c-0.9-0.7-2.1-0.1-3.6,1.7c-1.1,1.8-1,3.3,0.3,4.3l22.1,18.5c1.3,1.1,1.6,2,1,2.9
			c-0.7,1.2-1.6,1.4-2.7,0.5h-0.1l0.1-0.1l-22.7-19.4c-0.4-0.4-0.9-0.6-1.3-0.6l-0.3-0.2c-0.9-0.8-2.1-0.3-3.8,1.4
			c-1.1,1.7-1.1,3.2,0.1,4.3l21.4,19.8c1.2,1.1,1.5,2.1,0.9,2.9c-0.9,1.1-1.8,1.2-2.8,0.3l-21.6-21.3c-0.5-0.5-1.2-0.6-2-0.2
			c-0.7,0-1.5,0.5-2.4,1.3c-1.3,1.6-1.3,3,0,4.3l6.8,7.2l13,14.3c1.1,1.3,1.3,2.3,0.7,3c-0.7,0.8-1.3,1-2,0.7l-20.7-23.6
			c-0.4-0.4-0.8-0.6-1.4-0.5c-0.9-0.2-1.8,0.2-2.9,1c-1.4,1.5-1.6,3-0.4,4.4l18.2,23c1.1,1.3,1.2,2.3,0.5,3
			c-0.8,0.8-1.5,0.9-2.2,0.5l0.1-0.1L296.3,705c-0.6-0.7-1.5-0.8-2.9-0.2c-0.3,0.2-0.8,0.4-1.2,0.8c-1.6,1.3-1.8,2.8-0.8,4.3
			l16.5,23.9c0.9,1.3,1,2.3,0.2,3c-0.8,0.7-1.6,0.8-2.2,0.3l0,0l-17.5-26.4c-0.5-1-1.9-0.9-4,0.2c0,0,0,0,0,0.1
			c-1,0.7-1.5,1.4-1.5,2.3c-0.1,0.5,0,1.1,0.4,1.7l14.8,25.1c0.8,1.5,0.8,2.5,0,3.1c-1.2,0.8-2.1,0.6-2.8-0.5l-15.4-27.6
			c-0.6-1-2-1-4,0c-1.7,1.3-2.2,2.6-1.5,4.1l12.9,26.1c0.7,1.5,0.6,2.5-0.2,3.1c-1.2,0.7-2.1,0.5-2.7-0.7L271.8,720
			c-0.2-0.6-0.9-0.9-1.8-0.8c-0.7-0.2-1.6-0.2-2.6,0.3c-1.8,1.1-2.3,2.5-1.6,4.1l3.8,9.1l7.1,18.1c0.6,1.5,0.4,2.5-0.5,3.1
			c-0.9,0.4-1.6,0.4-2.1-0.1l-10.9-29.5c-0.2-0.5-0.6-0.8-1.2-0.9c-0.7-0.5-1.7-0.5-3-0.1c-1.8,0.9-2.5,2.2-1.9,4l8.8,28
			c0.5,1.6,0.3,2.6-0.7,3.1c-0.9,0.3-1.7,0.2-2.2-0.4h0.1l-8.9-30.4c-0.3-0.9-1.1-1.3-2.6-1.1c-0.4,0-0.9,0-1.4,0.2
			c-2,0.8-2.7,2-2.2,3.8l6.8,28.2c0.4,1.6,0.1,2.6-0.9,3c-1,0.3-1.7,0.2-2.2-0.5l0.1-0.1l-6.9-30.9c-0.3-1.2-1.5-1.5-3.8-1.2H241
			c-1.1,0.4-1.9,0.9-2.2,1.7c-0.3,0.5-0.4,1-0.3,1.7l4.9,28.9c0.2,1.6-0.1,2.6-1.1,2.9c-0.9,0.2-1.6,0.1-2-0.4l0.1-0.1l-5-31.3
			c0-0.6-0.4-1-0.9-1.2c-0.6-0.5-1.6-0.7-2.8-0.5c-1.7,0.4-2.6,1.2-2.7,2.6c-0.1,0.3-0.1,0.6-0.1,0.9l3.2,29.1
			c0.1,1.7-0.3,2.6-1.3,2.8c-1.4,0.3-2.1-0.2-2.3-1.6l-2.3-30.4c0-0.7-0.5-1.2-1.4-1.5c-0.5-0.4-1.4-0.6-2.6-0.6
			c-2,0.4-3,1.5-2.9,3.3l0.5,9.9l0.4,19.4c0,1.7-0.4,2.6-1.5,2.7c-0.9,0.1-1.6-0.1-1.9-0.8l-0.1-31.5c0-0.5-0.3-1-0.8-1.3
			c-0.5-0.7-1.4-1.1-2.8-1.1c-2.1,0.1-3.1,1.1-3.2,3l-1.3,29.4c-0.1,1.7-0.6,2.5-1.7,2.6c-1,0-1.7-0.3-1.9-1.1h0.1l2-31.6
			c0-0.9-0.6-1.6-2-2c-0.4-0.2-0.9-0.3-1.5-0.3c-2,0-3.1,0.9-3.3,2.7l-3.3,28.9c-0.2,1.7-0.8,2.5-1.8,2.5c-1.1-0.1-1.7-0.5-1.9-1.3
			h0.1l4.1-31.4c0.2-1.2-0.9-2-3.2-2.5l0,0c-1.2-0.1-2.1,0.1-2.7,0.7c-0.4,0.4-0.7,0.9-0.8,1.6l-5.4,28.7c-0.3,1.7-0.9,2.4-1.9,2.4
			c-1.1-0.1-1.6-0.6-1.8-1.3l0,0l5.9-30.7c0.3-1.6-0.6-2.7-2.6-3.2c-0.7-0.1-1.2-0.1-1.7,0c-1.5,0.1-2.3,0.9-2.6,2.1l-6.6,28.5
			c-0.4,1.7-1,2.4-2.1,2.3c-1.3-0.2-1.9-1-1.6-2.3l7.8-29.5c0.1-0.7-0.1-1.3-0.9-1.8c-0.4-0.7-1.1-1.1-2.3-1.5
			c-2-0.4-3.2,0.3-3.7,2.1l-2.8,9.5l-6,18.4c-0.5,1.6-1.2,2.3-2.2,2.1c-1-0.2-1.5-0.7-1.6-1.4l10.1-29.8c0.2-0.5,0.1-0.9-0.3-1.4
			c-0.2-0.9-1-1.5-2.3-2c-1.9-0.7-3.2,0-3.9,1.7l-10.9,27.2c-0.6,1.6-1.4,2.2-2.4,2c-1-0.4-1.5-1-1.4-1.8l0.1,0.1l12.2-29.2
			c0.3-0.8-0.1-1.7-1.3-2.5c-0.3-0.3-0.7-0.6-1.2-0.8c-2-0.7-3.3-0.2-4.1,1.4l-12.5,26.1c-0.7,1.5-1.6,2.1-2.6,1.7
			c-0.9-0.4-1.4-1-1.3-1.8h0.1l14.1-28.2c0.5-1-0.2-2.2-2.1-3.4c-0.1,0-0.2,0-0.2,0c-1-0.5-2-0.6-2.7-0.3c-0.5,0.3-0.9,0.6-1.3,1.2
			l-14.4,25.3c-0.8,1.4-1.7,1.9-2.6,1.5c-1-0.5-1.3-1.1-1.2-1.9l8.1-14.2l7.4-12.6c0.9-1.4,0.4-2.7-1.4-3.9
			c-0.6-0.4-1.1-0.5-1.6-0.6c-1.4-0.3-2.4,0-3.1,1.1l-15.7,24.5c-0.9,1.4-1.8,1.8-2.7,1.3c-1.2-0.6-1.5-1.5-0.8-2.7l17.2-24.9
			c0.3-0.6,0.3-1.3-0.2-2.1c-0.2-0.7-0.7-1.4-1.7-2.1c-1.8-1.1-3.2-0.9-4.2,0.6l-5.8,7.9l-11.7,15.3c-1,1.3-2,1.7-2.8,1.1
			c-0.9-0.5-1.2-1.1-1-1.8l19.4-24.5c0.3-0.4,0.4-0.9,0.2-1.5c0.1-0.8-0.4-1.7-1.4-2.7c-1.7-1.2-3.2-1.1-4.4,0.3l-19.2,21.8
			c-1.1,1.3-2.1,1.6-2.9,0.9c-0.9-0.6-1.1-1.3-0.9-2h0.1l21.2-23.1c0.6-0.7,0.5-1.6-0.3-2.8c-0.2-0.4-0.5-0.8-0.9-1.2
			c-1.6-1.4-3-1.4-4.3-0.1l-20.5,20.2c-1.2,1.1-2.1,1.3-2.9,0.7c-0.8-0.7-1.1-1.5-0.7-2.2h0.1l22.7-21.5c0.8-0.8,0.5-2.2-0.9-4
			l-0.1-0.1c-0.8-0.8-1.7-1.2-2.5-1.1c-0.6,0-1.1,0.2-1.6,0.6l-22,18.7c-1.2,1.1-2.2,1.3-2.9,0.5c-1-1-1-1.9,0-2.8l23-19.1
			c1.3-1.1,1.2-2.4,0-4.2c-1.1-1.2-2.3-1.6-3.4-1.2c-0.7-0.2-1.4,0-2.1,0.5l-22.9,17.5c-1.3,1-2.3,1.1-3,0.4
			c-0.6-0.8-0.8-1.5-0.5-2.1l25-18.6c0.3-0.3,0.5-0.7,0.6-1.2c0.3-0.8,0-1.8-0.8-3c-1.2-1.6-2.5-1.9-3.9-1.1
			c-0.2,0.1-0.4,0.2-0.5,0.3l-24,16c-1.4,0.9-2.4,0.9-3,0.1c-0.9-1.1-0.8-2,0.3-2.8L83,675.3l-1.4-1.9l-21.3,13.4
			c-2.4,1.4-2.8,3.5-1,6.3c1.6,2.6,3.4,3.1,5.6,1.5l22.6-15.7c1.1-0.8,1.8-0.9,2.2-0.5c0.5,0.5,0.7,1,0.6,1.5
			c-0.2,0.3-0.4,0.5-0.8,0.8l-22.1,16c-2.4,1.5-2.6,3.7-0.7,6.4c1.7,2.5,3.6,2.9,5.7,1.2l5.8-4.6l0,0L94.5,687
			c0.3-0.3,0.6-0.5,0.9-0.7c0.3,0,0.5,0,0.7,0.2c1,0.9,0.9,1.9-0.3,2.9L75.6,706c-2.2,1.6-2.3,3.8-0.3,6.5c1.8,2.4,3.7,2.7,5.7,0.9
			l20.7-18.4c1-0.8,1.7-1.1,2.1-0.7c0.3,0.2,0.6,0.5,0.7,0.8c0,0.6-0.3,1.1-0.9,1.7l-20.1,18.7c-2.2,1.8-2.1,4,0.1,6.5
			c2,2.2,3.9,2.4,5.8,0.5l19.4-19.8c0.9-1,1.5-1.3,2-0.9c0.3,0.2,0.6,0.5,0.7,0.8c0,0.5-0.2,1-0.8,1.7l-18.7,20
			c-2.1,2-1.9,4.1,0.5,6.5c2.1,2.1,4,2.1,5.8,0.1l18-21.2c0.8-0.9,1.5-1.3,1.9-1c0.6,0.3,0.9,0.7,1,1.2c-0.1,0.3-0.3,0.6-0.6,1
			l-17.3,21.3c-1.9,2.1-1.6,4.2,0.9,6.4c2.3,2,4.2,1.9,5.8-0.3l4-5.4v0.1l12.5-17c0.8-1.1,1.4-1.5,1.9-1.2c0.5,0.2,0.8,0.5,1,0.8
			c-0.1,0.4-0.3,0.9-0.6,1.4l-15.5,22.7c-1.6,2.3-1.1,4.4,1.6,6.3c2.4,1.8,4.3,1.5,5.7-0.8l14.6-23.7c0.4-0.8,0.9-1.2,1.4-1.4
			c0.1-0.1,0.2-0.1,0.3,0c1.3,0.5,1.5,1.5,0.7,2.9l-14,23.3c-1.6,2.3-1,4.4,1.8,6.2c2.5,1.6,4.4,1.2,5.7-1.2l13.3-24.4
			c0.7-1.2,1.2-1.7,1.7-1.4c0.4,0.1,0.7,0.3,1,0.5c0.1,0.5,0,1.1-0.3,1.9l-12.7,24.6c-1.4,2.4-0.6,4.4,2.3,6
			c2.6,1.4,4.4,0.9,5.6-1.6l11.6-25.3c0.5-1.2,1.1-1.7,1.6-1.6c0.4,0.1,0.7,0.3,0.9,0.5c0.2,0.5,0.2,1.1-0.2,1.9L143,757.8
			c-1.2,2.5-0.3,4.5,2.7,5.9c2.6,1.2,4.5,0.6,5.5-2l9.8-26.1c0.5-1.3,1-1.8,1.5-1.7c0.6,0.1,1.1,0.4,1.3,0.8c0,0.3-0.1,0.7-0.2,1.2
			l-9.2,26.1c-1.1,2.6,0,4.5,3.1,5.6c2.7,1.1,4.5,0.3,5.3-2.3l1.9-6.4h0.1l6.1-20.4c0.3-1.2,0.8-1.8,1.3-1.8
			c0.5,0.1,0.9,0.3,1.2,0.6c0.1,0.3,0,0.8-0.1,1.4l-6.9,26.8c-0.8,2.7,0.3,4.5,3.5,5.4c2.9,0.8,4.6-0.1,5.1-2.8l5.8-27.4
			c0-0.3,0.1-0.5,0.1-0.6c0.2-0.5,0.4-0.9,0.6-1.2c0.2-0.1,0.3-0.1,0.5-0.1c1.4,0,1.9,0.8,1.6,2.4L178,768c-0.8,2.8,0.5,4.5,3.7,5.2
			c2.9,0.7,4.6-0.3,5-3l4.6-27.6c0.2-1.3,0.5-2,1.1-2c0.4,0,0.8,0.1,1.1,0.3c0.3,0.3,0.4,1,0.3,1.9l-3.9,27.4
			c-0.5,2.9,0.8,4.5,4.1,4.9c2.9,0.5,4.5-0.6,4.8-3.3l2.6-27.9c0.2-1.3,0.5-2,1-2c0.5-0.1,0.8,0,1.1,0.1c0.3,0.4,0.5,1,0.4,1.9
			l-2,27.6c-0.3,2.9,1.2,4.4,4.5,4.7c2.9,0.2,4.4-1,4.5-3.8l0.8-28c0-1.3,0.3-2,0.8-2c0.6-0.2,1.1-0.1,1.5,0.2
			c0.1,0.3,0.1,0.7,0.1,1.2l-0.1,27.8c-0.1,2.8,1.4,4.2,4.7,4.3c3,0,4.4-1.3,4.3-4l-0.3-6.7h0.1l-0.9-21.3c-0.1-1.4,0.1-2.1,0.7-2.2
			c0.5-0.1,0.9-0.1,1.2,0.1c0.2,0.3,0.4,0.8,0.4,1.3l2.3,27.7c0.1,2.8,1.7,4.1,5,3.9c3-0.2,4.3-1.6,3.9-4.4l-3.5-27.8
			c-0.1-1.3,0-2,0.5-2.2c0.6-0.2,1.1-0.2,1.5,0c0.2,0.3,0.4,0.8,0.4,1.3l3.9,27.5c0.3,2.8,2,4,5.3,3.5c3-0.4,4.2-1.9,3.6-4.6
			l-5.1-27.5c-0.3-1.3-0.1-2,0.4-2.2c0.4-0.2,0.7-0.3,1.1-0.2c0.4,0.2,0.7,0.8,0.9,1.7l5.8,27.1c0.4,2.8,2.3,3.8,5.5,3.1
			c2.9-0.6,4-2.2,3.2-4.8l-6.9-27.1c-0.4-1.3-0.3-2,0.2-2.3c0.4-0.2,0.8-0.2,1.1-0.2c0.4,0.2,0.8,0.7,1,1.5l7.6,26.7
			c0.6,2.7,2.5,3.7,5.7,2.7c2.8-0.8,3.8-2.5,3-5.1l-8.9-26.5c-0.4-1.2-0.4-2,0.1-2.2c0.5-0.4,1-0.4,1.5-0.3c0.1,0.3,0.4,0.6,0.5,1.1
			l9.4,26c0.8,2.7,2.8,3.5,5.9,2.3c2.8-1,3.7-2.7,2.6-5.3l-2.5-6.1v-0.1l-8.1-19.6c-0.5-1.2-0.5-1.9-0.1-2.2s0.9-0.5,1.2-0.4
			c0.3,0.2,0.6,0.6,0.9,1.1l11.5,25.2c1.1,2.5,3.1,3.1,6.1,1.7c2.7-1.2,3.4-3.1,2.1-5.5l-2.5-5l0,0L280,725.8
			c-0.1-0.2-0.2-0.5-0.3-0.7c0-0.6,0.2-1,0.6-1.2c0.9-0.4,1.6-0.1,2.3,1.1l13.4,24.2c1.3,2.6,3.4,3,6.3,1.4c2.6-1.3,3.1-3.2,1.7-5.5
			l-14.6-23.8c-0.7-1.1-0.8-1.8-0.5-2.2c0.4-0.3,0.7-0.5,1-0.6c0.5,0.1,1,0.5,1.5,1.2l15,23.3c1.5,2.4,3.6,2.7,6.4,1
			c2.5-1.6,2.9-3.5,1.3-5.7l-16.2-22.8c-0.7-1.1-1-1.8-0.5-2.1c0.3-0.3,0.5-0.6,0.9-0.6c0.4,0,1,0.4,1.5,1.1l16.6,22.1
			c1.5,2.4,3.7,2.5,6.3,0.5c2.4-1.7,2.7-3.6,1-5.7l-17.8-21.6c-0.8-1-1-1.7-0.7-2.1c0.4-0.5,0.9-0.8,1.3-0.8
			c0.3,0.2,0.6,0.4,0.9,0.8l18.1,20.9c1.7,2.3,3.9,2.3,6.4,0.1c2.2-1.9,2.4-3.8,0.5-5.8l-4.5-4.8l0,0L313.3,702
			c-0.9-1-1.2-1.6-0.9-2.1c0.3-0.4,0.7-0.7,1-0.8c0.4,0.2,0.8,0.4,1.2,0.8l19.8,19.3c1.9,2.1,4,1.9,6.3-0.4c2.1-2.2,2.1-4.1,0.1-5.9
			l-19.5-17.5c-1.4-1.3-1.8-2.4-1.2-3.1c0.4-0.5,0.9-0.6,1.6-0.4c0,0.1,0.1,0.1,0.1,0.2l7.8,6.6l13.5,12c2,1.9,4.1,1.6,6.3-0.9
			c2-2.3,1.9-4.3-0.2-6l-21.6-17.3c-1-0.8-1.3-1.4-1.1-1.9c0.7-1.2,1.6-1.4,2.9-0.4l17.7,12.3l6.5,4.7
			C354.6,702,356.1,701.4,357.9,699.4z"/>
		<g>
			<text transform="matrix(0.8572 -0.515 0.515 0.8572 153.5498 525.4512)" font-family="'Helvetica-Bold'" font-size="48.68">D</text>
		</g>
		<g>
			<text transform="matrix(0.9816 -0.1908 0.1908 0.9816 186.0498 509.2998)" font-family="'Helvetica-Bold'" font-size="48.6709">I</text>
		</g>
		<g>
			<text transform="matrix(0.9962 0.0871 -0.0871 0.9962 202.2002 506.1001)" font-family="'Helvetica-Bold'" font-size="48.6769">N</text>
		</g>
		<g>
			<text transform="matrix(0.891 0.454 -0.454 0.891 235 508.7998)" font-family="'Helvetica-Bold'" font-size="48.6808">A</text>
		</g>
		<g>
			<text transform="matrix(0.8291 0.5592 -0.5592 0.8291 128.7505 692.9502)" font-family="'Helvetica-Bold'" font-size="48.6719">T</text>
		</g>
		<g>
			<text transform="matrix(0.9563 0.2923 -0.2923 0.9563 159.7998 712.5498)" font-family="'Helvetica-Bold'" font-size="48.6742">E</text>
		</g>
		<g>
			<text transform="matrix(1 0 0 1 194.6494 722)" font-family="'Helvetica-Bold'" font-size="48.6675">S</text>
		</g>
		<g>
			<text transform="matrix(0.9563 -0.2923 0.2923 0.9563 231.75 721.25)" font-family="'Helvetica-Bold'" font-size="48.6742">T</text>
		</g>
		<g>
			<text transform="matrix(0.8291 -0.5592 0.5592 0.8291 267.0498 709.6504)" font-family="'Helvetica-Bold'" font-size="48.6719">E</text>
		</g>
	</g>
	<g>
		<path d="M210.1,402.3c-53,0-98.2,19-135.6,57c-37.5,38.1-56.2,84-56.2,137.8c0,53.8,18.7,99.8,56.2,137.8
			c37.4,38,82.6,57.1,135.6,57.1s98.2-19.1,135.7-57.1c37.4-38,56.2-84,56.2-137.8c0-53.8-18.8-99.7-56.2-137.8
			C308.3,421.3,263.1,402.3,210.1,402.3z M77.5,462.8c36.6-37.1,80.7-55.6,132.3-55.6c51.6,0,95.8,18.5,132.3,55.6
			c36.5,37,54.8,81.8,54.8,134.2c0,52.5-18.3,97.2-54.8,134.3c-36.5,37.1-80.7,55.6-132.3,55.6c-51.6,0-95.7-18.5-132.3-55.6
			C41,694.2,22.8,649.5,22.8,597C22.8,544.6,41,499.8,77.5,462.8z"/>
	</g>
	<g>
		<path fill="#ED1C24" d="M323.4,522.7c-3.9,0.7-9.2,0.6-15.7-0.1c-4.1-0.5-7.7,0-10.8,1.4c-3.8,2-6.5,4.4-8,7.1
			c-1.7,3.1-2,6.6-0.9,10.4c1.4,4.5,4.6,8.9,9.7,13l15.5,14.2c3.2,2.9,6.9,4,11.1,3.4c2-0.2,3.5-0.5,4.7-0.9c2.4-0.7,4.8-1.4,7-2.2
			c5.4-1.8,10.2-3.5,14.5-5.3c1.2-0.6,1.7-1.9,1.5-3.8c-0.3-2.3,0.2-3.8,1.6-4.7l66.8-22.1l-4.4-12.9l-66.8,24.2
			c-1.5,0.4-2.8-1.3-4-5.1c-0.5-1.6-1.8-2.1-4.1-1.4l-33,11.4c-3.6,1-7,0.7-10.2-1c-2.3-1.5-4-3.7-5.2-6.5c-1.2-3.7-0.9-6.7,0.9-9.2
			c2.1-2.8,5-4.6,8.8-5.5c0.5-0.3,4.6-0.6,12.2-0.9c7.5-0.3,13.2-1.6,17-4l-1.3-1.9C328.6,521.4,326.4,522.2,323.4,522.7z"/>
		<path fill="#ED1C24" d="M262.4,546c2,2.1,3.7,4.3,5.4,6.5c3.3,4.4,6.1,9,8.4,13.9c1.9,4,3.5,8.1,4.7,12.3c0.4,2,0.9,3.7,1.3,5.1
			c0.9,3,1.7,4.5,2.6,4.6c1.3,0.3,2.5,0,3.6-0.8c0.7-0.5,1-1.8,0.8-3.8c0-1.3-0.3-3-0.8-5.1c-3-15.5-10.4-29.2-22.2-41.1
			c-15.9-15.9-35.1-23.8-57.5-23.8c-22.5,0-41.7,7.9-57.5,23.8c-2.7,2.7-5.1,5.4-7.4,8.2l-8.5,9.8c-1.5,1.5-2.8,2.7-4.3,3.7
			c-2.7,2-5.4,3.1-8,3.4l-6.3,0.9c-2.3,0.2-3.6-0.2-4.1-1.3c-0.5-1.2,0.3-2.5,2.2-4.1l14.2-11.5c0.8-0.7,1.5-1.4,2-2.2
			c1.3-1.6,2.2-3.3,2.8-5.1c1-3.4,0.9-6.8-0.4-10.3c-0.7-1.8-1.5-3.4-2.4-4.7c-0.7-1.1-1.4-1.9-2.2-2.7c-2.4-2.1-6-3.2-10.6-3.1
			c-7.6,0.1-13.7-0.4-18.2-1.5c-5-1.5-8.8-3.2-11.5-5.3l-1,2.4c3.8,2.7,8.6,4.7,14.2,6.1c4.9,1,10.6,1.7,17,2.1c4,0.5,6.8,1.5,8.5,3
			c2.4,2.2,3.6,4.8,3.8,8c0,0.2,0,0.2,0,0.4c0.1,0.4,0.1,0.8,0,1.3c-0.2,2.3-1.3,4.6-3.5,7.1c-2.6,2.3-6,3.6-10.1,3.9l-42.5-1.9
			c-2.4-0.2-4.2,1.1-5.5,4c-1.2,2.8-2.6,4.1-4.1,3.9L0,550.4v13.5h65.3c2.6,0.1,4.2,1.2,4.7,3.1c1,3.3,2.8,5,5.2,5.3l43.6-0.3
			c5.2,0,9.3-1.7,12.2-5.3c0.3-0.4,0.7-0.8,1-1.2l14.3-19.7c1.8-2.2,3.7-4.4,5.8-6.6c15.6-15.8,34.4-23.8,56.5-23.8
			c22,0,40.8,8,56.4,23.8c10.1,10.3,16.9,21.9,20.4,34.8c0.5,1.6,0.8,3.2,1.2,4.7c0.2,1.2-0.2,2-1.3,2.4c-1.2,0.5-2-0.3-2.5-2.4
			c-0.4-1.2-0.7-2.4-1.1-3.6c-1.2-3.6-2.6-7-4.2-10.3c-3.6-7.3-8.2-14.2-13.9-20.5c-15-16.2-33-24.4-54.2-24.4
			c-21.1,0-39.1,8.2-54.1,24.4c-3.5,3.9-6.6,7.9-9.3,12.1c-2.5,4-4.7,8.1-6.5,12.5c-1.2,2.6-2.1,5.3-2.9,8.1
			c-0.2,0.6-0.3,1.2-0.4,1.8c-0.5,2-0.9,3.7-0.9,5c-0.1,2,0.2,3.3,0.9,3.8c1.1,0.8,2.5,1.1,4,0.8c0.9-0.1,1.9-1.6,2.9-4.6
			c0.5-1.4,1-3.1,1.6-5.1c1.2-4.5,3-8.9,5.3-13c1.8-3.6,4.1-7,6.6-10.2c1.3-1.7,2.7-3.4,4.2-5c13.4-14.7,29.5-22,48.3-22
			c18.9,0,35,7.3,48.3,22c3.7,4,6.9,8.4,9.5,12.9c2.5,4.1,4.5,8.4,6.1,13c0.3,0.7,0.6,1.5,0.8,2.3c0.3,1.3,0,2.2-1.1,2.7
			c-1,0.5-1.8-0.4-2.4-2.7c-0.1-0.3-0.2-0.6-0.4-1c-3-9.4-8.1-17.9-15.2-25.4c-12.5-13.5-27.7-20.2-45.4-20.2
			c-17.8,0-32.9,6.7-45.5,20.2c-7.3,7.8-12.5,16.6-15.5,26.4c-0.7,2.1-1,3.9-1,5.6c0,1.7,0.3,2.8,1,3.3c1,0.8,2.2,1.1,3.3,0.9
			c1-0.1,1.9-1.3,2.4-3.5c0.6-2.2,1.2-4.2,1.9-6.2c2.6-7.9,6.8-15,12.7-21.4c11.2-12.2,24.7-18.4,40.5-18.4
			c15.9,0,29.4,6.2,40.6,18.4c5.8,6.4,10.2,13.5,13,21.3c0.2,1.3-0.2,2.2-1.3,2.7s-2.1-0.4-2.8-2.7c-2.6-6.8-6.6-13.1-11.8-18.8
			c-10.4-11.1-22.9-16.7-37.5-16.7c-14.6,0-27.1,5.6-37.5,16.7c-5.3,5.7-9.2,12-11.8,18.8l0,0c-0.6,2-1.1,3.6-1.3,5
			c-0.4,1.9-0.3,3.2,0.3,3.8c1,0.9,2,1.4,3,1.4c1-0.1,1.9-1.1,2.7-3.2c0.7-2.1,1.6-4.4,2.5-7c2.3-4.8,5.3-9.4,9.1-13.5
			c9.1-10,20.2-15,33.1-15s23.9,5,33,15c3.8,4.1,6.9,8.7,9.1,13.5c0.5,1.2,0.1,2.2-1.1,2.9c-1.3,0.7-2.3,0.1-3.2-1.8l-0.6-1.1
			c-1.9-4.1-4.5-7.9-7.8-11.4c-8.2-8.7-18-13.1-29.5-13.1c-11.6,0-21.4,4.4-29.6,13.1c-3.3,3.5-5.9,7.3-7.9,11.4
			c-0.9,2-1.6,3.8-2,5.4c-0.3,1.6-0.2,2.7,0.5,3.4c1,0.9,2.1,1.4,3.5,1.4c0.8,0.1,1.6-1,2.4-3.1c0.8-2.1,1.9-4.5,3.3-7.1
			c1.3-2.1,2.8-4.1,4.6-6c6.9-7.6,15.3-11.4,25.1-11.4c9.9,0,18.2,3.8,25.2,11.4c1.7,1.9,3.2,3.9,4.6,6c0.7,1.4,0.6,2.5-0.5,3.2
			c-1.1,0.6-2.2,0.1-3.2-1.7c-0.2-0.5-0.6-1-0.9-1.5c-0.9-1.5-2-2.8-3.2-4.1c-6-6.5-13.3-9.8-21.8-9.7c-8.5-0.1-15.8,3.2-21.8,9.7
			c-1.3,1.3-2.4,2.7-3.4,4.1c-1.1,1.8-1.9,3.3-2.4,4.6c-0.8,1.8-1,3-0.6,3.8c0.8,1.1,1.7,1.7,2.7,1.9c1.1,0.2,1.9-0.5,2.6-1.9
			c0.7-1.5,2-3.5,3.9-6.2c0.2-0.3,0.6-0.7,0.9-1c0.1-0.2,0.2-0.3,0.4-0.4c0.2-0.3,0.4-0.5,0.7-0.8c4.8-4.7,10.5-7.1,17-7.1
			c4.7,0,8.9,1.2,12.6,3.5c0.1,0.1,0.2,0.1,0.3,0.2c1.4,0.9,2.8,2.1,4.2,3.4c1.2,1.3,1.5,2.3,1,3c-0.6,0.8-1.1,1.1-1.6,1.1
			s-1.2-0.5-2.1-1.4c-1-0.9-1.9-1.7-2.8-2.4c-0.2-0.1-0.3-0.2-0.5-0.3c-3.1-2-6.7-3.1-10.6-3.1c-1.3,0-2.6,0.2-3.9,0.4
			c-2.4,0.5-4.6,1.4-6.7,2.7c-1.7,1.1-3.1,2.4-4.4,3.9c-1.3,1.6-2.3,3-3,4.4c-0.1,0.2-0.2,0.3-0.2,0.5c-0.6,1.2-0.9,2.1-1,2.8
			c-0.4,2.9-1.1,4.2-2.3,4.1h-58c-3.5,0.1-6.4,1.4-8.9,3.9c-1.9,1.9-3.1,4.2-3.6,6.9c-0.8,3.5-2.8,5.5-6,6l-38.5-0.8
			c-2.7-0.2-4.5,0.9-5.4,3.3c-1,2.4-2.5,3.7-4.5,4.1L0,616l0.1,14.2h63.4c2.2-0.2,3.6,0.3,4.3,1.4c2.5,4.7,4.9,7,7.1,6.8l47,0.3
			c3.1,0,5.9,1.3,8.3,4c0.3,0.3,0.6,0.7,0.8,1.1c1.4,2,2.2,4.6,2.2,7.9c0.1,2.5-0.6,4.9-2.2,7.2c-0.5,0.8-1.1,1.5-1.8,2.3
			c-2.7,2.8-8,4.3-15.7,4.4c-7.7,0-13.1,0.1-16.3,0.3c-3.6,0.4-8.8,2.9-15.6,7.5l1.4,1.9c6.2-4.2,10.7-6.3,13.5-6.3
			c4.2,0.1,7.8,0.4,10.7,1.1c6.1,1.5,11.2,2,15.4,1.7c3.1-0.3,5.9-1.3,8.4-2.9c1.1-0.7,2-1.4,2.9-2.3c3.4-3.2,5.2-7.4,5.3-12.8
			c0-4.1-1-7.8-3-11.2c-2.1-3.6-3.9-6.6-5.2-9c0-0.1,0-0.1-0.1-0.2c-2.7-5.1-4.5-10-5.5-14.5c-0.9-4.4-1.4-8.5-1.6-12.2
			c-0.1-3.4,0.6-5.9,2-7.4c1.2-1.3,2.9-2,5.2-2.2c0.6,0,1.1,0,1.6,0h57.2c0.9-0.1,1.4-0.8,1.4-2.1l0.3-1.9c0.2-2.1,0.7-3.8,1.4-5.3
			c0-0.1,0.1-0.2,0.2-0.3c0.6-1.2,1.4-2.2,2.3-3.3c2-2.4,4.2-4.3,6.7-5.5c1.3-0.6,2.6-1,4-1.3c1.2-0.3,2.5-0.4,3.8-0.4
			c2.8,0,5.3,0.6,7.7,1.7c1.4,0.7,2.7,1.6,3.9,2.6c0.3,0.3,0.7,0.6,1,0.9l0,0c2.6,2.6,4.4,4.5,5.2,5.6c0.9,1.1,1.9,1.5,3,1.1
			c1.1-0.4,1.9-1.3,2.2-2.5c0.3-0.8-0.1-2-1.2-3.6c-0.7-1.2-1.8-2.5-3.2-4.1c-0.2-0.2-0.4-0.4-0.5-0.6c-5.2-5.5-11.3-8.3-18.5-8.3
			c-7.3,0-13.5,2.8-18.6,8.3c-0.1,0.2-0.3,0.4-0.5,0.6c-0.3,0.3-0.5,0.6-0.8,1c-0.2,0.2-0.5,0.6-1,1.2c-0.5,0.7-1,1.3-1.5,1.9
			c-0.6,0.7-1.3,0.6-2.2-0.1c-0.9-0.8-0.6-2.1,1-4c0.6-0.8,1.3-1.6,2.1-2.4c5.9-6.5,13-9.8,21.4-9.8c8.3,0,15.4,3.3,21.4,9.8
			c0.7,0.8,1.3,1.6,1.9,2.5c1.9,2.9,3.3,5.4,4.2,7.4c1,2,2,2.9,3,2.8s2-0.7,2.9-1.7c0.5-0.7,0.4-2-0.3-3.8c-0.4-1.3-1.1-2.9-2-4.8
			c-1.5-2.6-3.4-5.2-5.6-7.5c-7.1-7.6-15.6-11.4-25.6-11.4s-18.6,3.8-25.6,11.4c-2.3,2.3-4.1,4.9-5.6,7.5c-1.3,2.6-2.6,3.6-3.9,2.9
			c-1.2-0.6-1.5-1.6-0.9-2.9c1.8-3.5,4.1-6.8,6.9-9.8c8-8.8,17.7-13.2,29-13.1c11.3-0.1,21,4.3,29,13.1c2.8,3,5.1,6.3,7,9.8
			c1.1,2.8,2.2,5.2,3.2,7.3c1,2,2,3,3.1,3c1.1-0.1,2.1-0.6,3.1-1.5c0.5-0.7,0.6-1.9,0.1-3.9c-0.3-1.3-0.9-2.9-1.7-4.9
			c-2.3-5.5-5.6-10.5-9.9-15.2c-9.3-9.9-20.5-14.9-33.7-14.9c-13.1,0-24.4,5-33.7,14.9c-4.3,4.7-7.6,9.7-9.9,15.2
			c-1.1,2.4-2.1,3.3-3.3,2.8c-1.1-0.6-1.5-1.5-1-2.8c2.6-6.2,6.2-11.9,11-17.1c10.1-11.2,22.4-16.7,36.7-16.7
			c14.4,0,26.7,5.5,36.8,16.7c4.8,5.2,8.4,10.9,10.9,17.1c0.9,2.4,1.7,4.7,2.4,6.8c0.7,2.1,1.6,3.2,2.6,3.3c1,0,2.1-0.4,3.2-1.2
			c0.6-0.6,0.7-1.9,0.4-3.9c-0.2-1.3-0.6-3-1.2-5c-0.1-0.2-0.1-0.4-0.2-0.7c-2.9-8.2-7.4-15.7-13.6-22.3
			c-11.4-12.3-25.2-18.4-41.3-18.4c-16.1,0-29.9,6.1-41.3,18.4c-6.4,6.8-11,14.5-13.8,23c-0.6,2.1-1.6,2.9-2.8,2.4
			c-1.2-0.4-1.7-1.2-1.5-2.4c3-9.1,8-17.4,14.8-24.8c12.3-13.5,27.2-20.3,44.6-20.3c17.5,0,32.3,6.8,44.7,20.3
			c6.7,7.4,11.7,15.7,14.7,24.8c0.7,2.4,1.4,4.7,2.2,6.8c0.7,2.1,1.6,3.2,2.5,3.3c1,0,2-0.4,3-1.2c0.6-0.6,0.8-1.9,0.5-3.9
			c-0.2-1.3-0.6-3-1.2-5c-1.8-5.9-4.3-11.6-7.5-16.9c-2.3-3.9-5.2-7.7-8.3-11.3c-0.4-0.6-0.9-1.1-1.4-1.6c-13.6-14.7-30-22-49.2-22
			c-17.4,0-32.4,6-45.2,17.9c-1.4,1.3-2.7,2.7-4,4.1c-1.6,1.7-3.1,3.4-4.5,5.2c-5.8,7.5-10.1,15.7-12.7,24.6c-0.6,2.1-1.6,2.9-3,2.4
			c-1.3-0.4-1.8-1.2-1.6-2.4c1.9-7.4,4.9-14.4,9.1-20.9c2.5-4,5.4-7.8,8.6-11.4c0.1-0.1,0.2-0.3,0.4-0.4
			c14.6-16.3,32.3-24.4,53.1-24.4C230.1,521.6,247.8,529.7,262.4,546z"/>
		<path fill="#ED1C24" d="M311.5,592.9c-3.1,1.8-7.3,2.7-12.4,2.8l-68.2-0.7c-1.6,0-2.5,0.8-2.8,2.4c-0.4,2.3-1,4.3-1.7,6.1
			c-0.7,1.3-1.6,2.5-2.5,3.6c-2,2.5-4.3,4.3-6.7,5.5c-2.4,1.2-5,1.8-7.8,1.8c-2.8,0-5.4-0.6-7.8-1.8c-1.3-0.7-2.6-1.5-3.8-2.5
			c-0.4-0.3-0.7-0.6-1-0.9c-2.6-2.7-4.4-4.5-5.3-5.6c-0.9-1.2-1.8-1.5-2.9-1.1s-1.9,1.2-2.2,2.4c-0.3,0.8,0.1,2,1.2,3.7
			c0.7,1.1,1.8,2.5,3.2,4c0.2,0.2,0.3,0.4,0.5,0.6c5.1,5.5,11.3,8.3,18.5,8.3c7.3,0,13.4-2.8,18.5-8.3c0.2-0.2,0.4-0.4,0.6-0.6
			c0.3-0.3,0.5-0.6,0.8-0.9c0.1-0.2,0.5-0.7,1-1.3s1-1.3,1.5-1.9s1.2-0.6,2.2,0.2c0.9,0.7,0.5,2-1,3.9c-0.6,0.9-1.3,1.7-2.1,2.5
			c-5.9,6.5-13,9.7-21.4,9.7c-8.3,0-15.5-3.2-21.4-9.7c-0.7-0.8-1.4-1.7-1.9-2.6c-1.9-2.9-3.3-5.3-4.3-7.3c-0.9-2-1.9-3-2.9-2.9
			c-1,0.1-2,0.7-2.9,1.8c-0.5,0.6-0.4,1.9,0.2,3.8c0.5,1.3,1.1,2.9,2.1,4.7c1.5,2.7,3.4,5.2,5.6,7.6c7.1,7.6,15.6,11.3,25.6,11.3
			s18.6-3.7,25.6-11.3c2.2-2.4,4.1-4.9,5.6-7.6c1.3-2.5,2.6-3.5,3.9-2.9c1.2,0.7,1.5,1.6,0.9,2.9c-1.8,3.5-4.1,6.8-6.9,9.9
			c-8,8.8-17.7,13.1-29,13.1c-11.4,0-21-4.3-29-13.1c-2.8-3.1-5.2-6.4-7-9.9c-1.2-2.8-2.2-5.2-3.2-7.2s-2-3-3.1-3
			c-1.1,0-2.1,0.5-3.1,1.5c-0.5,0.6-0.6,1.9-0.1,3.8c0.3,1.4,0.9,3,1.6,4.9c2.4,5.5,5.7,10.6,10,15.2c9.3,10,20.5,15,33.7,15
			c13.1,0,24.4-5,33.7-15c4.3-4.6,7.6-9.7,9.9-15.2c1-2.4,2.1-3.3,3.3-2.7c1.1,0.5,1.5,1.4,1,2.7c-2.6,6.2-6.2,12-11,17.2
			c-10.1,11.1-22.4,16.7-36.8,16.7c-14.3,0-26.6-5.6-36.7-16.7c-4.8-5.2-8.4-11-11-17.2c-0.9-2.4-1.6-4.7-2.4-6.8
			c-0.7-2.1-1.5-3.2-2.6-3.2c-1-0.1-2.1,0.3-3.1,1.2c-0.6,0.6-0.7,1.9-0.4,3.8c0.2,1.4,0.6,3,1.2,5c0,0.2,0.1,0.5,0.2,0.7
			c2.8,8.2,7.4,15.7,13.6,22.4c11.4,12.2,25.2,18.3,41.3,18.3s29.9-6.1,41.3-18.3c6.4-6.9,11-14.6,13.8-23.1c0.6-2,1.6-2.8,2.8-2.4
			c1.2,0.5,1.7,1.3,1.4,2.4c-3,9.2-8,17.4-14.7,24.9c-12.3,13.5-27.2,20.2-44.6,20.2c-17.5,0-32.3-6.7-44.7-20.2
			c-6.7-7.5-11.7-15.7-14.7-24.9c-0.7-2.4-1.4-4.6-2.2-6.7c-0.7-2.1-1.6-3.2-2.5-3.3c-1-0.1-2,0.3-3,1.2c-0.7,0.6-0.8,1.9-0.5,3.8
			c0.2,1.4,0.6,3,1.2,5c1.8,6,4.2,11.6,7.4,16.9c2.4,4,5.2,7.8,8.4,11.4c0.4,0.5,0.9,1,1.4,1.5c13.6,14.8,30,22,49.2,22.1
			c17.3-0.1,32.4-6,45.2-18c1.3-1.3,2.6-2.6,4-4.1c1.6-1.6,3.1-3.4,4.5-5.1c5.8-7.5,10-15.8,12.6-24.7c0.7-2,1.7-2.8,3-2.4
			c1.4,0.5,1.9,1.3,1.7,2.4c-2,7.4-5,14.4-9.1,20.9c-2.5,4-5.4,7.8-8.6,11.5c-0.1,0.1-0.2,0.2-0.4,0.3
			c-14.6,16.4-32.3,24.5-53.1,24.5c-20.7,0-38.4-8.1-53.1-24.5c-1.9-2.1-3.7-4.2-5.3-6.4c-3.3-4.4-6.1-9.1-8.4-13.9
			c-1.9-4-3.5-8.1-4.7-12.4c-0.4-2-0.9-3.7-1.3-5.1c-0.9-2.9-1.8-4.5-2.6-4.6c-1.3-0.2-2.4,0-3.5,0.7c0,0.1-0.2,0.1-0.2,0.2
			c-0.6,0.5-0.9,1.7-0.8,3.7c0.1,1.4,0.3,3.1,0.8,5.1c0,0.4,0.2,0.8,0.2,1.2c3.2,15,10.5,28.4,22.1,39.9
			c15.9,15.9,35.1,23.8,57.5,23.8c22.5,0,41.6-7.9,57.5-23.8c6.1-6,10.9-12.5,14.5-19.6c3.4-6.9,6.3-10.7,8.8-11.5
			c2.9-1.7,5.5-1.6,7.8,0.2c3.1,2.4,4,5.8,2.7,10c-0.9,2.5-4.1,4.6-9.8,6.4c-3.5,1.3-6.3,3-8.5,5c-2.8,2.5-4.1,6.5-3.9,12.1
			c0.2,5.1,1.9,9.2,5.1,12.2c2.2,2.1,5.1,3.6,8.8,4.4c3.2,0.8,11.3,0.8,24.3,0.2c2.9,0,5.5,0.7,8,2.1l5,3.3l1.2-2.1l-3.8-2.4
			c-2.8-1.8-6.3-3-10.8-3.8l-13.2-1.1c-6.5-0.4-11.1-1.7-13.9-3.9c-2.9-2.3-4.5-5.4-4.7-9c-0.3-4.1,1.2-7.2,4.4-9.2
			c3.7-2.3,6.7-3,9-1.9l35.2,12.7c0.6,0.2,1.1,0.4,1.7,0.5c2.4,0.5,4.4,0.1,6-1.2c1.8-1.6,3.8-2,5.8-1.2l66.6,26.2l5.2-10.9
			l-69.1-25.4c-2.1-1-2.7-3-1.9-6c1.3-4.2,0.4-6.7-2.8-7.6l-44.2-17.4c-3.9-1.6-7.7-1.6-11.3,0.2c-3.4,1.6-5.4,4.5-6.1,8.6
			c-0.5,2.9-1.5,6.1-3.3,9.5c-3.4,6.8-8,13.1-13.8,19.1c-15.6,15.8-34.4,23.7-56.4,23.7c-22.1,0-40.9-7.9-56.4-23.7
			c-10.1-10.3-16.9-21.9-20.5-34.9c-0.4-1.5-0.8-3.1-1.1-4.7c-0.3-1.1,0.1-1.9,1.3-2.4c1.1-0.4,2,0.4,2.5,2.4
			c0.3,1.2,0.7,2.5,1.1,3.7c1.1,3.5,2.5,6.9,4.1,10.3c3.6,7.3,8.3,14.1,14,20.4c15,16.3,33,24.4,54.2,24.4c21.1,0,39.1-8.1,54-24.4
			c3.6-3.8,6.7-7.8,9.4-12.1c2.5-4,4.7-8.1,6.5-12.4c1.1-2.7,2.1-5.4,2.9-8.1c0.2-0.6,0.3-1.2,0.4-1.8c0.5-2,0.8-3.7,0.8-5.1
			c0.2-2-0.1-3.2-0.8-3.7c-1.2-0.8-2.6-1.1-4-0.9c-1,0.1-1.9,1.7-2.9,4.6c-0.5,1.4-1,3.1-1.6,5.1c-1.3,4.6-3,8.9-5.3,13.1
			c-1.9,3.5-4.1,6.9-6.6,10.2c-1.4,1.7-2.8,3.3-4.3,5c-13.3,14.6-29.4,22-48.2,22c-18.9,0-35-7.4-48.3-22c-3.7-4.1-6.9-8.4-9.6-12.9
			c-2.5-4.2-4.5-8.5-6-13c-0.3-0.8-0.6-1.6-0.8-2.4c-0.3-1.2,0-2.1,1.1-2.6c1-0.6,1.7,0.3,2.4,2.6c0.1,0.4,0.2,0.7,0.3,1.1
			c3,9.3,8.2,17.8,15.2,25.4c12.6,13.5,27.8,20.2,45.5,20.2c17.8,0,32.9-6.7,45.5-20.2c7.3-7.9,12.4-16.7,15.5-26.5
			c0.6-2,0.9-3.9,0.9-5.5c0-1.7-0.3-2.8-0.9-3.3c-1.1-0.8-2.2-1.1-3.3-1c-1,0.2-1.9,1.4-2.4,3.5c-0.6,2.2-1.2,4.3-1.9,6.3
			c-2.6,7.8-6.9,14.9-12.7,21.4c-11.2,12.2-24.7,18.3-40.5,18.3c-15.9,0-29.4-6.1-40.6-18.3c-5.8-6.5-10.2-13.6-13-21.4
			c-0.2-1.2,0.2-2.1,1.3-2.7c1.1-0.5,2,0.4,2.8,2.7c2.6,6.9,6.5,13.2,11.8,18.9c10.4,11.1,22.9,16.7,37.5,16.7s27.1-5.6,37.5-16.7
			c5.3-5.7,9.2-12,11.8-18.9c0.6-2,1.1-3.6,1.3-4.9c0.4-2,0.3-3.3-0.3-3.9c-1-0.9-2-1.3-3-1.3c-1.1,0-2,1.1-2.7,3.2
			c-0.7,2-1.6,4.4-2.6,6.9c-2.2,4.9-5.2,9.4-9,13.6c-9.1,9.9-20.2,15-33.1,15s-23.9-5.1-33-15c-3.8-4.2-6.9-8.7-9.1-13.6
			c-0.5-1.2-0.1-2.1,1.1-2.8c1.3-0.7,2.3-0.2,3.2,1.7l0.5,1.1c2,4.1,4.6,7.9,7.9,11.4c8.2,8.8,18,13.1,29.5,13.1
			c11.6,0,21.4-4.3,29.6-13.1c3.3-3.5,5.9-7.3,7.8-11.4c1-1.9,1.7-3.7,2-5.3c0.4-1.6,0.3-2.8-0.4-3.4c-1-1-2.1-1.5-3.5-1.5
			c-0.8,0-1.6,1-2.4,3.1c-0.9,2.2-1.9,4.5-3.3,7.1c-1.3,2.1-2.9,4.1-4.6,6c-6.9,7.6-15.3,11.4-25.2,11.4c-9.8,0-18.2-3.8-25.1-11.4
			c-1.8-1.9-3.3-3.9-4.6-6c-0.8-1.4-0.6-2.4,0.5-3.1c1.1-0.7,2.2-0.1,3.2,1.7c0.2,0.5,0.5,0.9,0.9,1.4c0.9,1.5,2,2.9,3.2,4.2
			c6,6.5,13.3,9.7,21.8,9.7s15.8-3.2,21.8-9.7c1.3-1.4,2.4-2.7,3.4-4.2c1.1-1.8,1.9-3.3,2.4-4.5c0.8-1.8,1-3.1,0.6-3.8
			c-0.8-1.1-1.7-1.8-2.7-1.9c-1.1-0.2-1.9,0.4-2.6,1.9c-0.8,1.4-2,3.5-3.9,6.1c-0.3,0.4-0.6,0.7-0.9,1.1c-0.1,0.1-0.2,0.2-0.4,0.4
			c-0.2,0.2-0.4,0.5-0.7,0.7c-4.8,4.8-10.5,7.1-17,7.2c-4.7-0.1-8.9-1.2-12.6-3.6c-0.1-0.1-0.2-0.1-0.3-0.1c-1.4-1-2.9-2.2-4.2-3.5
			c-1.2-1.2-1.5-2.2-1-3c0.5-0.7,1-1.1,1.6-1.1c0.5,0.1,1.2,0.5,2.1,1.5c1,0.9,1.9,1.7,2.8,2.3c0.2,0.1,0.3,0.2,0.5,0.3
			c3.1,2.1,6.6,3.1,10.6,3.1c3.9,0,7.4-1,10.6-3.1c1.6-1.1,3.2-2.5,4.6-4.1c1.2-1.4,2.2-2.8,3.1-4.3c0.7-1.3,1.4-2.9,1.9-4.6
			c0.4-1,1-1.5,1.8-1.4l67.5,1.3c5,0,9.3,1.2,12.7,3.5l9.4,6c3,2.3,6.4,3.4,10.1,3.2H352c2.5-0.5,3.9-2,4.1-4.6
			c0.1-1.8,1.3-2.7,3.5-2.7h62.8v-11.3h-63.6c-1.6-0.2-2.6-1.6-2.7-4.3c-0.2-3.1-1.5-4.6-3.9-4.7h-22.6c-3.4-0.3-6.3,0.5-8.6,2.4
			L311.5,592.9z"/>
	</g>
	<g>
		
			<line fill="none" stroke="#ED1C24" stroke-width="1.8" stroke-linecap="round" stroke-linejoin="round" stroke-miterlimit="10" x1="210.2" y1="596.4" x2="210.2" y2="603.3"/>
		
			<line fill="none" stroke="#ED1C24" stroke-width="1.8" stroke-linecap="round" stroke-linejoin="round" stroke-miterlimit="10" x1="217.1" y1="596.4" x2="210.2" y2="596.4"/>
		
			<line fill="none" stroke="#ED1C24" stroke-width="1.8" stroke-linecap="round" stroke-linejoin="round" stroke-miterlimit="10" x1="210.2" y1="596.4" x2="210.2" y2="589.5"/>
		
			<line fill="none" stroke="#ED1C24" stroke-width="1.8" stroke-linecap="round" stroke-linejoin="round" stroke-miterlimit="10" x1="203.3" y1="596.4" x2="210.2" y2="596.4"/>
	</g>
</g>
</svg>
