<?xml version="1.0" encoding="UTF-8" standalone="no"?>
<!-- Generator: Adobe Illustrator 16.0.0, SVG Export Plug-In . SVG Version: 6.00 Build 0)  -->

<svg
   xmlns:dc="http://purl.org/dc/elements/1.1/"
   xmlns:cc="http://creativecommons.org/ns#"
   xmlns:rdf="http://www.w3.org/1999/02/22-rdf-syntax-ns#"
   xmlns:svg="http://www.w3.org/2000/svg"
   xmlns="http://www.w3.org/2000/svg"
   xmlns:sodipodi="http://sodipodi.sourceforge.net/DTD/sodipodi-0.dtd"
   xmlns:inkscape="http://www.inkscape.org/namespaces/inkscape"
   version="1.1"
   id="Layer_1"
   x="0px"
   y="0px"
   width="425"
   height="394"
   viewBox="0 0 425 394"
   enable-background="new 0 0 612 792"
   xml:space="preserve"
   sodipodi:docname="logo.svg"
   inkscape:version="0.92.3 (2405546, 2018-03-11)"><metadata
   id="metadata77"><rdf:RDF><cc:Work
       rdf:about=""><dc:format>image/svg+xml</dc:format><dc:type
         rdf:resource="http://purl.org/dc/dcmitype/StillImage" /><dc:title></dc:title></cc:Work></rdf:RDF></metadata><defs
   id="defs75">
	
	
	
	
	

		
		
		
		
		
		
		
		
		
		
		
	
			
		
			
		
			
		
			
		
			
		
			
		
			
		
			
		
			
		</defs><sodipodi:namedview
   pagecolor="#ffffff"
   bordercolor="#666666"
   borderopacity="1"
   objecttolerance="10"
   gridtolerance="10"
   guidetolerance="10"
   inkscape:pageopacity="0"
   inkscape:pageshadow="2"
   inkscape:window-width="1366"
   inkscape:window-height="715"
   id="namedview73"
   showgrid="false"
   inkscape:zoom="0.94499426"
   inkscape:cx="426.51494"
   inkscape:cy="185.3715"
   inkscape:window-x="-8"
   inkscape:window-y="-8"
   inkscape:window-maximized="1"
   inkscape:current-layer="Layer_1" />
<g
   id="g4"
   transform="translate(0,-398)">
		<path
   style="fill:#ffffff"
   inkscape:connector-curvature="0"
   id="path2"
   d="m 209.8,407.2 c -51.6,0 -95.7,18.5 -132.3,55.6 -36.5,37 -54.7,81.8 -54.7,134.2 0,52.5 18.2,97.2 54.7,134.3 36.6,37.1 80.7,55.6 132.3,55.6 51.6,0 95.8,-18.5 132.3,-55.6 36.5,-37.1 54.8,-81.8 54.8,-134.3 0,-52.4 -18.3,-97.2 -54.8,-134.2 -36.5,-37.1 -80.7,-55.6 -132.3,-55.6 z" />
	</g><path
   d="m 231,24.5 c 0.6,-2.7 -0.8,-4.4 -4.1,-4.8 -3,-0.5 -4.6,0.6 -4.8,3.3 l -2.7,27.4 c -0.2,1.3 -0.5,1.9 -1,2 -0.5,0 -0.8,-0.1 -1.1,-0.2 -0.3,-0.4 -0.5,-1 -0.4,-1.8 l 2,-27.2 c 0.4,-2.8 -1.1,-4.3 -4.4,-4.5 -3,-0.3 -4.5,0.9 -4.6,3.6 l -0.8,27.5 c 0,1.3 -0.3,2 -0.8,2.1 -0.7,0.1 -1.2,0 -1.5,-0.3 -0.1,-0.3 -0.2,-0.7 -0.2,-1.2 l 0.1,-27.3 c 0.2,-2.8 -1.4,-4.2 -4.7,-4.2 -3,0 -4.4,1.3 -4.3,4 l 0.3,6.5 h -0.1 l 0.9,21 c 0.1,1.3 -0.1,2 -0.7,2.1 -0.5,0.1 -0.9,0.1 -1.3,-0.1 -0.2,-0.3 -0.3,-0.8 -0.3,-1.3 l -2.3,-27.2 c -0.1,-2.8 -1.8,-4.1 -5.1,-3.8 -3,0.2 -4.3,1.6 -3.9,4.3 l 3.5,27.3 c 0.2,1.3 0,2 -0.5,2.2 -0.6,0.2 -1.1,0.2 -1.5,-0.1 -0.2,-0.3 -0.3,-0.7 -0.4,-1.2 l -3.9,-27 c -0.3,-2.8 -2,-4 -5.3,-3.5 -3,0.4 -4.2,1.9 -3.7,4.5 l 5.2,27.1 c 0.2,1.2 0.1,2 -0.4,2.2 -0.4,0.1 -0.8,0.2 -1.1,0.1 -0.5,-0.2 -0.8,-0.8 -1,-1.6 l -5.7,-26.7 c -0.5,-2.7 -2.3,-3.8 -5.6,-3.1 -2.9,0.6 -4,2.2 -3.3,4.8 l 7,26.7 c 0.4,1.2 0.3,1.9 -0.2,2.1 -0.4,0.2 -0.8,0.3 -1.1,0.3 -0.4,-0.2 -0.8,-0.7 -1,-1.5 l -7.6,-26.2 c -0.7,-2.8 -2.6,-3.7 -5.8,-2.7 -2.9,0.7 -3.8,2.4 -3,5 l 8.9,26 c 0.4,1.2 0.4,2 0,2.2 -0.6,0.4 -1.1,0.5 -1.5,0.3 -0.3,-0.3 -0.5,-0.6 -0.6,-1 L 147.2,35 c -0.9,-2.7 -2.9,-3.5 -6,-2.3 -2.8,1 -3.7,2.7 -2.6,5.2 l 2.6,6 -0.1,0.1 8.2,19.3 c 0.5,1.1 0.5,1.9 0,2.2 -0.4,0.3 -0.8,0.4 -1.2,0.4 -0.3,-0.3 -0.6,-0.6 -0.8,-1.2 L 135.7,40.1 c -1.1,-2.6 -3.1,-3.2 -6.1,-1.8 -2.5,1.1 -3.3,2.7 -2.4,4.9 0,0.1 0.1,0.3 0.2,0.5 l 2.6,4.9 h -0.1 l 10.4,19.5 c 0.1,0.2 0.2,0.5 0.3,0.7 0,0.5 -0.2,0.9 -0.6,1.2 -0.9,0.4 -1.7,0 -2.3,-1.2 L 124.2,45 c -0.5,-0.8 -1,-1.5 -1.6,-1.8 -1,-0.6 -2.2,-0.6 -3.6,0 -0.4,0.1 -0.7,0.2 -1.1,0.4 -2.6,1.4 -3.2,3.2 -1.7,5.5 l 14.6,23.4 c 0.7,1.1 0.9,1.8 0.5,2.2 -0.4,0.3 -0.7,0.4 -1,0.5 -0.5,-0.1 -1,-0.4 -1.5,-1.2 L 113.7,51.2 c -1.4,-2.4 -3.6,-2.7 -6.4,-1 -2.5,1.5 -2.9,3.4 -1.3,5.6 l 16.3,22.4 c 0.7,1 0.9,1.7 0.5,2.1 -0.3,0.3 -0.6,0.5 -0.9,0.6 -0.5,-0.1 -1,-0.4 -1.5,-1.1 L 103.7,58 c -1.6,-2.3 -3.7,-2.5 -6.4,-0.5 -2.4,1.7 -2.7,3.6 -1,5.7 l 17.9,21.2 c 0.8,1 1,1.7 0.7,2.1 -0.4,0.5 -0.9,0.7 -1.3,0.7 -0.3,-0.1 -0.6,-0.4 -0.9,-0.7 L 94.5,65.8 c -1.7,-2.2 -3.9,-2.2 -6.4,-0.1 -2.3,1.9 -2.5,3.8 -0.6,5.8 l 4.6,4.7 v 0.1 l 14.7,15.2 c 0.9,0.9 1.2,1.6 0.9,2 -0.3,0.4 -0.7,0.7 -1,0.8 -0.4,-0.1 -0.8,-0.4 -1.2,-0.7 L 85.6,74.5 c -1.9,-2 -4.1,-1.9 -6.4,0.5 -2.1,2 -2.1,4 -0.1,5.7 L 98.7,98 c 1.5,1.2 1.9,2.2 1.3,3 -0.5,0.5 -1,0.6 -1.6,0.3 -0.1,0 -0.2,-0.1 -0.2,-0.1 L 90.3,94.6 76.8,82.9 c -2.1,-1.9 -4.2,-1.6 -6.3,0.9 -2,2.2 -2,4.1 0.2,5.8 l 6,4.7 h -0.2 l 15.8,12.3 c 1,0.8 1.4,1.5 1.2,2 -0.1,0 -0.1,0.1 -0.2,0.1 -0.5,0.4 -1.2,0.4 -2.2,-0.3 L 72.7,95.6 v 0 l -4,-2.8 c -2.2,-1.7 -4.2,-1.2 -6.1,1.5 -1.8,2.5 -1.5,4.4 0.8,5.8 l 24.1,16.1 1,-2.4 -17.7,-12 c -1.3,-0.9 -1.8,-1.7 -1.3,-2.7 0.7,-1.2 1.5,-1.5 2.7,-0.8 l 2.5,1.8 22,16.1 c 1,0.6 2.2,0.1 3.7,-1.6 0.1,-0.3 0.3,-0.5 0.4,-0.7 0,-0.1 0,-0.1 0.1,-0.1 1,-1.8 0.8,-3.2 -0.7,-4.3 l -12,-9 -10.3,-8.4 c -1.3,-1 -1.6,-2 -1,-2.9 0.7,-1.1 1.7,-1.3 2.7,-0.5 l 0.1,0.1 v 0.1 l 22.7,19 c 0.5,0.4 0.9,0.6 1.4,0.7 l 0.2,0.2 c 0.9,0.7 2.2,0.3 3.8,-1.4 1.2,-1.7 1.1,-3.2 0,-4.2 L 86.3,83.7 c -1.2,-1.1 -1.5,-2.1 -0.9,-2.9 0.8,-1.1 1.8,-1.2 2.8,-0.3 l 21.7,21.1 c 0.5,0.4 1.2,0.5 2,0.1 0.7,0 1.6,-0.5 2.4,-1.3 1.3,-1.6 1.3,-3 0,-4.3 l -6.8,-7 L 94.4,75 c -1.1,-1.2 -1.3,-2.2 -0.6,-2.9 0.6,-0.7 1.2,-1 1.9,-0.7 l 20.8,23.2 c 0.4,0.4 0.9,0.6 1.5,0.5 0.8,0.2 1.8,-0.2 2.9,-1 1.4,-1.5 1.6,-2.9 0.4,-4.3 L 102.9,67.2 c -1,-1.3 -1.1,-2.3 -0.4,-3 0.8,-0.7 1.5,-0.9 2.2,-0.5 l -0.1,0.1 19.3,24.8 c 0.6,0.6 1.5,0.7 2.8,0.1 0.4,-0.1 0.9,-0.4 1.3,-0.7 1.6,-1.4 1.8,-2.8 0.8,-4.3 L 112.3,60.2 c -1,-1.3 -1.1,-2.3 -0.3,-3 0.9,-0.6 1.6,-0.7 2.3,-0.2 h -0.1 l 17.6,26 c 0.5,0.9 1.9,0.8 4,-0.3 v 0 c 1,-0.7 1.5,-1.5 1.5,-2.3 0.2,-0.6 0,-1.1 -0.3,-1.7 L 122.1,54 c -0.8,-1.4 -0.8,-2.4 0,-3 1.2,-0.8 2.1,-0.7 2.8,0.5 l 15.5,27.1 c 0.6,1 1.9,1 4,0 1.7,-1.3 2.2,-2.6 1.5,-4 L 133,48.9 c -0.8,-1.4 -0.7,-2.5 0.2,-3 1.1,-0.7 2.1,-0.5 2.7,0.7 l 12.6,27.2 c 0.3,0.6 0.9,0.9 1.8,0.8 0.7,0.3 1.6,0.1 2.7,-0.4 1.8,-1 2.3,-2.3 1.6,-4 l -3.8,-8.9 -7.1,-17.7 c 0,-0.2 -0.1,-0.3 -0.1,-0.4 -0.5,-1.3 -0.3,-2.2 0.6,-2.6 0.8,-0.5 1.5,-0.5 2,0 l 11,29 c 0.2,0.4 0.6,0.8 1.2,0.9 0.7,0.5 1.7,0.5 3,0 1.9,-0.8 2.6,-2.1 2,-3.8 l -8.9,-27.6 c -0.5,-1.6 -0.2,-2.5 0.7,-3 1,-0.4 1.7,-0.3 2.2,0.3 l -0.1,0.1 9,29.9 c 0.2,0.8 1.1,1.2 2.6,1.1 0.4,0 0.9,-0.1 1.4,-0.2 2,-0.8 2.7,-2 2.2,-3.8 l -6.8,-27.7 c -0.4,-1.6 -0.1,-2.6 0.9,-2.9 1,-0.4 1.7,-0.2 2.2,0.5 v 0 l 6.8,30.4 c 0.3,1.1 1.6,1.5 3.9,1.2 0,0 0,0 0,-0.1 1.2,-0.3 1.9,-0.8 2.3,-1.6 0.3,-0.5 0.4,-1 0.3,-1.7 l -4.9,-28.3 c -0.3,-1.7 0.1,-2.6 1.1,-2.9 0.9,-0.2 1.6,-0.1 2,0.4 l -0.2,0.1 5.1,30.7 c 0,0.6 0.4,1 0.9,1.2 0.6,0.5 1.6,0.7 2.9,0.5 1.6,-0.4 2.5,-1.2 2.7,-2.5 0,-0.3 0,-0.6 0,-0.9 l -3.1,-28.6 c -0.2,-1.7 0.2,-2.6 1.3,-2.8 1.3,-0.3 2.1,0.2 2.3,1.6 l 2.2,29.9 c 0.1,0.6 0.5,1.1 1.4,1.4 0.6,0.5 1.5,0.6 2.7,0.6 2,-0.4 3,-1.4 2.9,-3.2 L 200.9,49.1 200.5,30 c 0,-1.6 0.5,-2.5 1.5,-2.7 1,-0.1 1.6,0.2 1.9,0.8 l 0.1,31 c 0,0.5 0.3,0.9 0.8,1.2 0.5,0.8 1.5,1.1 2.9,1.2 2,-0.2 3.1,-1.2 3.1,-3 l 1.4,-28.9 c 0.1,-1.6 0.6,-2.5 1.7,-2.5 1,-0.1 1.7,0.3 1.9,1 h -0.1 l -2,31.1 c -0.1,0.9 0.6,1.6 2,2 0.4,0.1 0.9,0.2 1.5,0.3 2,0 3.1,-0.9 3.3,-2.7 l 3.4,-28.4 c 0.2,-1.6 0.8,-2.4 1.8,-2.4 1.1,0 1.7,0.4 1.9,1.2 h -0.1 l -4.2,30.9 c -0.1,1.2 0.9,2 3.2,2.5 h 0.1 c 1.2,0.1 2.1,-0.2 2.7,-0.7 0.4,-0.4 0.7,-0.9 0.8,-1.6 l 5.4,-28.2 c 0.3,-1.6 1,-2.4 2,-2.3 1,0.1 1.6,0.5 1.8,1.3 l -6,30.1 c -0.3,1.6 0.6,2.6 2.7,3.2 0.6,0 1.2,0 1.6,-0.1 1.5,-0.1 2.4,-0.8 2.7,-2.1 l 6.6,-28 c 0.4,-1.6 1.1,-2.3 2.1,-2.2 1.4,0.2 1.9,1 1.7,2.3 l -7.9,28.9 c -0.2,0.7 0.1,1.3 0.8,1.9 0.4,0.6 1.2,1.1 2.3,1.4 2.1,0.4 3.3,-0.3 3.9,-2.1 l 2.8,-9.3 5.9,-18.1 c 0.5,-1.5 1.3,-2.2 2.3,-2 1,0.2 1.5,0.7 1.6,1.4 l -10.2,29.2 c -0.2,0.5 -0.1,1 0.3,1.5 0.2,0.8 1,1.5 2.3,2 2,0.5 3.3,-0.1 4,-1.7 l 10.9,-26.9 c 0.6,-1.5 1.4,-2.1 2.4,-1.8 1,0.3 1.5,0.9 1.5,1.7 L 273.5,40.3 261.2,69 c -0.4,0.8 0.1,1.6 1.2,2.5 0.4,0.3 0.8,0.5 1.3,0.8 2,0.6 3.3,0.2 4.1,-1.5 l 12.6,-25.6 c 0.7,-1.5 1.5,-2 2.5,-1.7 1,0.4 1.5,1 1.4,1.8 v 0 L 269.9,73 c -0.5,1 0.3,2.1 2.3,3.4 0,0 0,0 0.1,0 1,0.5 2,0.6 2.7,0.2 0.5,-0.2 0.9,-0.5 1.3,-1.1 l 14.5,-24.8 c 0.8,-1.5 1.7,-2 2.6,-1.5 1,0.4 1.4,1 1.3,1.8 l -8.2,14 -7.5,12.4 c -0.8,1.4 -0.3,2.6 1.4,3.8 0.7,0.3 1.2,0.5 1.7,0.6 1.3,0.3 2.4,-0.1 3.1,-1.1 L 301,56.6 c 0.9,-1.3 1.8,-1.8 2.7,-1.3 1.2,0.7 1.5,1.6 0.8,2.7 l -17.2,24.5 c -0.4,0.5 -0.4,1.2 0.1,2 0.2,0.7 0.7,1.4 1.7,2.1 1.8,1.1 3.2,0.9 4.3,-0.6 l 5.8,-7.8 11.8,-15 c 1,-1.3 2,-1.6 2.8,-1.1 0.9,0.6 1.2,1.2 1.1,1.9 l -19.7,23.9 c -0.3,0.4 -0.4,0.9 -0.2,1.5 -0.1,0.8 0.4,1.7 1.5,2.7 1.7,1.1 3.1,1.1 4.4,-0.3 l 19.4,-21.4 c 1.1,-1.2 2,-1.5 2.9,-0.9 0.8,0.6 1.1,1.3 0.8,2 h -0.1 l -21.3,22.7 c -0.7,0.6 -0.5,1.5 0.3,2.7 0.2,0.4 0.5,0.8 0.9,1.2 1.6,1.3 3.1,1.4 4.4,0.1 l 20.6,-19.8 c 1.1,-1.1 2.1,-1.4 3,-0.7 0.8,0.7 1,1.4 0.6,2.2 v -0.1 l -22.9,21.3 c -0.9,0.7 -0.6,2 0.9,3.8 0,0 0,0 0,0.1 0.9,0.8 1.7,1.2 2.5,1.1 0.6,0 1.1,-0.2 1.7,-0.6 l 22.1,-18.4 c 1.2,-1.1 2.2,-1.2 3,-0.5 1,1 1,2 0,2.8 l -23.2,18.8 c -1.3,1 -1.3,2.4 0,4.1 1.1,1.2 2.3,1.6 3.4,1.2 0.7,0.1 1.4,0 2.1,-0.5 l 23.1,-17.2 c 1.3,-1 2.3,-1.1 3,-0.4 0.8,1 0.8,1.8 0.1,2.7 l -0.2,-0.3 -25.6,17.8 c -1,0.7 -0.9,2 0.3,4 0.9,1 1.7,1.5 2.6,1.6 0.8,0.3 1.7,0.1 2.5,-0.4 l 16.1,-10.6 7.4,-4.6 c 1.4,-0.8 2.4,-0.8 3,0 0.8,1.1 0.7,2 -0.4,2.8 l -23.6,13.9 1.3,1.9 c 3.2,-1.8 4.9,-2.8 5.2,-2.9 l 23.6,-13.7 c 2.4,-1.3 2.8,-3.4 1.2,-6.3 -1.5,-2.6 -3.3,-3.2 -5.6,-1.7 l -23.2,15 c -0.6,0.4 -1.1,0.6 -1.5,0.6 -0.1,0 -0.1,-0.1 -0.2,-0.1 -0.5,-0.9 -0.3,-1.7 0.9,-2.5 l 22.3,-15.7 c 2.3,-1.5 2.5,-3.6 0.7,-6.3 -1.7,-2.5 -3.7,-2.9 -5.8,-1.2 l -5.8,4.5 h -0.1 L 327,106.4 c -0.4,0.3 -0.7,0.5 -0.9,0.7 -0.3,0 -0.6,0 -0.7,-0.2 -1.1,-0.9 -1,-1.9 0.3,-2.9 L 346,87.7 c 2.2,-1.6 2.3,-3.7 0.3,-6.3 -1.8,-2.4 -3.8,-2.7 -5.8,-0.9 l -20.8,18 c -1,0.8 -1.7,1.1 -2.1,0.7 -0.3,-0.2 -0.6,-0.5 -0.7,-0.8 0,-0.5 0.3,-1.1 1,-1.7 l 20.2,-18.3 c 2.1,-1.8 2.1,-3.9 -0.1,-6.4 -2,-2.2 -4,-2.4 -5.9,-0.5 L 312.6,91 c -0.9,0.9 -1.6,1.2 -2,0.9 -0.4,-0.3 -0.6,-0.6 -0.8,-0.8 0,-0.5 0.3,-1 0.9,-1.7 l 18.8,-19.7 c 2.1,-1.9 1.9,-4 -0.5,-6.3 -2.1,-2.1 -4.1,-2.1 -5.8,-0.1 L 305,84 c -0.8,1 -1.5,1.3 -1.9,1.1 -0.6,-0.4 -0.9,-0.8 -1,-1.2 0.1,-0.3 0.3,-0.7 0.6,-1 l 17.5,-21 c 1.9,-2 1.6,-4.1 -1,-6.3 -2.3,-1.9 -4.2,-1.8 -5.8,0.4 l -4,5.2 v 0 l -12.7,16.7 c -0.8,1 -1.3,1.4 -1.8,1.2 -0.5,-0.3 -0.8,-0.6 -1,-0.9 0,-0.4 0.2,-0.8 0.5,-1.3 L 310,54.5 c 1.8,-2.2 1.2,-4.2 -1.5,-6.1 -2.4,-1.8 -4.3,-1.5 -5.7,0.8 l -14.7,23.3 c -0.5,0.7 -1,1.2 -1.4,1.4 -0.2,0 -0.3,0 -0.4,-0.1 -1.3,-0.5 -1.5,-1.4 -0.7,-2.8 l 14.2,-22.9 c 1.1,-1.8 1.1,-3.5 -0.4,-4.9 -0.5,-0.4 -1,-0.8 -1.5,-1.2 -2.5,-1.6 -4.5,-1.2 -5.7,1.1 l -13.5,24.1 c -0.6,1.1 -1.1,1.6 -1.6,1.4 -0.5,-0.2 -0.8,-0.4 -1,-0.6 -0.2,-0.5 -0.1,-1.1 0.3,-1.9 L 289.1,42 c 1.5,-2.4 0.7,-4.4 -2.2,-5.9 -2.7,-1.5 -4.5,-1 -5.6,1.5 l -11.8,24.9 c -0.6,1.2 -1.1,1.7 -1.6,1.6 -0.4,-0.2 -0.7,-0.3 -1,-0.5 -0.1,-0.5 -0.1,-1.1 0.3,-1.9 l 11,-24.9 c 1.2,-2.5 0.3,-4.5 -2.7,-5.8 -2.7,-1.3 -4.6,-0.6 -5.6,1.9 L 260,58.6 c -0.4,1.2 -0.9,1.7 -1.4,1.6 -0.7,-0.1 -1.2,-0.4 -1.3,-0.8 -0.1,-0.3 0,-0.7 0.1,-1.1 l 9.3,-25.7 c 1.1,-2.5 0.1,-4.4 -3,-5.5 -2.8,-1.1 -4.6,-0.3 -5.4,2.3 l -1.9,6.3 h -0.1 l -6.1,20 c -0.4,1.2 -0.9,1.8 -1.4,1.7 -0.5,0 -0.9,-0.2 -1.2,-0.5 -0.1,-0.4 -0.1,-0.8 0.1,-1.4 l 7,-26.3 c 0.8,-2.7 -0.4,-4.5 -3.6,-5.3 -2.9,-0.8 -4.6,0.1 -5.1,2.7 l -5.8,27 c -0.1,0.2 -0.1,0.4 -0.2,0.5 -0.2,0.5 -0.4,0.9 -0.6,1.2 -0.1,0.1 -0.3,0.1 -0.4,0.1 -1.4,0 -2,-0.8 -1.7,-2.4 L 243,26.7 c 0.8,-2.7 -0.5,-4.4 -3.7,-5.1 -2.9,-0.7 -4.6,0.3 -5,2.9 l -4.7,27.2 c -0.2,1.3 -0.6,1.9 -1.1,1.9 -0.4,0 -0.8,-0.1 -1.1,-0.2 -0.3,-0.4 -0.4,-1.1 -0.3,-1.9 z"
   id="path6"
   inkscape:connector-curvature="0"
   style="fill:#ed1c24" /><path
   d="m 357.9,301.4 c 1.7,-2.6 1.8,-4.4 0.4,-5.4 l -26.2,-17.6 -1.2,2.1 17.8,11.7 c 1.1,0.9 1.4,1.9 0.8,2.8 -0.5,1 -1.5,1 -2.9,-0.1 l -12.8,-8.2 -10.6,-7.9 c -0.9,-0.7 -2.1,-0.1 -3.6,1.7 -1.1,1.8 -1,3.3 0.3,4.3 l 22.1,18.5 c 1.3,1.1 1.6,2 1,2.9 -0.7,1.2 -1.6,1.4 -2.7,0.5 h -0.1 l 0.1,-0.1 -22.7,-19.4 c -0.4,-0.4 -0.9,-0.6 -1.3,-0.6 l -0.3,-0.2 c -0.9,-0.8 -2.1,-0.3 -3.8,1.4 -1.1,1.7 -1.1,3.2 0.1,4.3 l 21.4,19.8 c 1.2,1.1 1.5,2.1 0.9,2.9 -0.9,1.1 -1.8,1.2 -2.8,0.3 l -21.6,-21.3 c -0.5,-0.5 -1.2,-0.6 -2,-0.2 -0.7,0 -1.5,0.5 -2.4,1.3 -1.3,1.6 -1.3,3 0,4.3 l 6.8,7.2 13,14.3 c 1.1,1.3 1.3,2.3 0.7,3 -0.7,0.8 -1.3,1 -2,0.7 l -20.7,-23.6 c -0.4,-0.4 -0.8,-0.6 -1.4,-0.5 -0.9,-0.2 -1.8,0.2 -2.9,1 -1.4,1.5 -1.6,3 -0.4,4.4 l 18.2,23 c 1.1,1.3 1.2,2.3 0.5,3 -0.8,0.8 -1.5,0.9 -2.2,0.5 l 0.1,-0.1 -19.2,-25.1 c -0.6,-0.7 -1.5,-0.8 -2.9,-0.2 -0.3,0.2 -0.8,0.4 -1.2,0.8 -1.6,1.3 -1.8,2.8 -0.8,4.3 l 16.5,23.9 c 0.9,1.3 1,2.3 0.2,3 -0.8,0.7 -1.6,0.8 -2.2,0.3 v 0 l -17.5,-26.4 c -0.5,-1 -1.9,-0.9 -4,0.2 0,0 0,0 0,0.1 -1,0.7 -1.5,1.4 -1.5,2.3 -0.1,0.5 0,1.1 0.4,1.7 l 14.8,25.1 c 0.8,1.5 0.8,2.5 0,3.1 -1.2,0.8 -2.1,0.6 -2.8,-0.5 l -15.4,-27.6 c -0.6,-1 -2,-1 -4,0 -1.7,1.3 -2.2,2.6 -1.5,4.1 l 12.9,26.1 c 0.7,1.5 0.6,2.5 -0.2,3.1 -1.2,0.7 -2.1,0.5 -2.7,-0.7 L 271.8,322 c -0.2,-0.6 -0.9,-0.9 -1.8,-0.8 -0.7,-0.2 -1.6,-0.2 -2.6,0.3 -1.8,1.1 -2.3,2.5 -1.6,4.1 l 3.8,9.1 7.1,18.1 c 0.6,1.5 0.4,2.5 -0.5,3.1 -0.9,0.4 -1.6,0.4 -2.1,-0.1 l -10.9,-29.5 c -0.2,-0.5 -0.6,-0.8 -1.2,-0.9 -0.7,-0.5 -1.7,-0.5 -3,-0.1 -1.8,0.9 -2.5,2.2 -1.9,4 l 8.8,28 c 0.5,1.6 0.3,2.6 -0.7,3.1 -0.9,0.3 -1.7,0.2 -2.2,-0.4 h 0.1 l -8.9,-30.4 c -0.3,-0.9 -1.1,-1.3 -2.6,-1.1 -0.4,0 -0.9,0 -1.4,0.2 -2,0.8 -2.7,2 -2.2,3.8 l 6.8,28.2 c 0.4,1.6 0.1,2.6 -0.9,3 -1,0.3 -1.7,0.2 -2.2,-0.5 l 0.1,-0.1 -6.9,-30.9 c -0.3,-1.2 -1.5,-1.5 -3.8,-1.2 H 241 c -1.1,0.4 -1.9,0.9 -2.2,1.7 -0.3,0.5 -0.4,1 -0.3,1.7 l 4.9,28.9 c 0.2,1.6 -0.1,2.6 -1.1,2.9 -0.9,0.2 -1.6,0.1 -2,-0.4 l 0.1,-0.1 -5,-31.3 c 0,-0.6 -0.4,-1 -0.9,-1.2 -0.6,-0.5 -1.6,-0.7 -2.8,-0.5 -1.7,0.4 -2.6,1.2 -2.7,2.6 -0.1,0.3 -0.1,0.6 -0.1,0.9 l 3.2,29.1 c 0.1,1.7 -0.3,2.6 -1.3,2.8 -1.4,0.3 -2.1,-0.2 -2.3,-1.6 l -2.3,-30.4 c 0,-0.7 -0.5,-1.2 -1.4,-1.5 -0.5,-0.4 -1.4,-0.6 -2.6,-0.6 -2,0.4 -3,1.5 -2.9,3.3 l 0.5,9.9 0.4,19.4 c 0,1.7 -0.4,2.6 -1.5,2.7 -0.9,0.1 -1.6,-0.1 -1.9,-0.8 L 216.7,337 c 0,-0.5 -0.3,-1 -0.8,-1.3 -0.5,-0.7 -1.4,-1.1 -2.8,-1.1 -2.1,0.1 -3.1,1.1 -3.2,3 l -1.3,29.4 c -0.1,1.7 -0.6,2.5 -1.7,2.6 -1,0 -1.7,-0.3 -1.9,-1.1 h 0.1 l 2,-31.6 c 0,-0.9 -0.6,-1.6 -2,-2 -0.4,-0.2 -0.9,-0.3 -1.5,-0.3 -2,0 -3.1,0.9 -3.3,2.7 l -3.3,28.9 c -0.2,1.7 -0.8,2.5 -1.8,2.5 -1.1,-0.1 -1.7,-0.5 -1.9,-1.3 h 0.1 l 4.1,-31.4 c 0.2,-1.2 -0.9,-2 -3.2,-2.5 v 0 c -1.2,-0.1 -2.1,0.1 -2.7,0.7 -0.4,0.4 -0.7,0.9 -0.8,1.6 l -5.4,28.7 c -0.3,1.7 -0.9,2.4 -1.9,2.4 -1.1,-0.1 -1.6,-0.6 -1.8,-1.3 v 0 l 5.9,-30.7 c 0.3,-1.6 -0.6,-2.7 -2.6,-3.2 -0.7,-0.1 -1.2,-0.1 -1.7,0 -1.5,0.1 -2.3,0.9 -2.6,2.1 l -6.6,28.5 c -0.4,1.7 -1,2.4 -2.1,2.3 -1.3,-0.2 -1.9,-1 -1.6,-2.3 l 7.8,-29.5 c 0.1,-0.7 -0.1,-1.3 -0.9,-1.8 -0.4,-0.7 -1.1,-1.1 -2.3,-1.5 -2,-0.4 -3.2,0.3 -3.7,2.1 l -2.8,9.5 -6,18.4 c -0.5,1.6 -1.2,2.3 -2.2,2.1 -1,-0.2 -1.5,-0.7 -1.6,-1.4 l 10.1,-29.8 c 0.2,-0.5 0.1,-0.9 -0.3,-1.4 -0.2,-0.9 -1,-1.5 -2.3,-2 -1.9,-0.7 -3.2,0 -3.9,1.7 l -10.9,27.2 c -0.6,1.6 -1.4,2.2 -2.4,2 -1,-0.4 -1.5,-1 -1.4,-1.8 l 0.1,0.1 12.2,-29.2 c 0.3,-0.8 -0.1,-1.7 -1.3,-2.5 -0.3,-0.3 -0.7,-0.6 -1.2,-0.8 -2,-0.7 -3.3,-0.2 -4.1,1.4 l -12.5,26.1 c -0.7,1.5 -1.6,2.1 -2.6,1.7 -0.9,-0.4 -1.4,-1 -1.3,-1.8 h 0.1 l 14.1,-28.2 c 0.5,-1 -0.2,-2.2 -2.1,-3.4 -0.1,0 -0.2,0 -0.2,0 -1,-0.5 -2,-0.6 -2.7,-0.3 -0.5,0.3 -0.9,0.6 -1.3,1.2 l -14.4,25.3 c -0.8,1.4 -1.7,1.9 -2.6,1.5 -1,-0.5 -1.3,-1.1 -1.2,-1.9 l 8.1,-14.2 7.4,-12.6 c 0.9,-1.4 0.4,-2.7 -1.4,-3.9 -0.6,-0.4 -1.1,-0.5 -1.6,-0.6 -1.4,-0.3 -2.4,0 -3.1,1.1 l -15.7,24.5 c -0.9,1.4 -1.8,1.8 -2.7,1.3 -1.2,-0.6 -1.5,-1.5 -0.8,-2.7 L 134,313.3 c 0.3,-0.6 0.3,-1.3 -0.2,-2.1 -0.2,-0.7 -0.7,-1.4 -1.7,-2.1 -1.8,-1.1 -3.2,-0.9 -4.2,0.6 l -5.8,7.9 -11.7,15.3 c -1,1.3 -2,1.7 -2.8,1.1 -0.9,-0.5 -1.2,-1.1 -1,-1.8 L 126,307.7 c 0.3,-0.4 0.4,-0.9 0.2,-1.5 0.1,-0.8 -0.4,-1.7 -1.4,-2.7 -1.7,-1.2 -3.2,-1.1 -4.4,0.3 l -19.2,21.8 c -1.1,1.3 -2.1,1.6 -2.9,0.9 -0.9,-0.6 -1.1,-1.3 -0.9,-2 h 0.1 l 21.2,-23.1 c 0.6,-0.7 0.5,-1.6 -0.3,-2.8 -0.2,-0.4 -0.5,-0.8 -0.9,-1.2 -1.6,-1.4 -3,-1.4 -4.3,-0.1 l -20.5,20.2 c -1.2,1.1 -2.1,1.3 -2.9,0.7 -0.8,-0.7 -1.1,-1.5 -0.7,-2.2 h 0.1 l 22.7,-21.5 c 0.8,-0.8 0.5,-2.2 -0.9,-4 l -0.1,-0.1 c -0.8,-0.8 -1.7,-1.2 -2.5,-1.1 -0.6,0 -1.1,0.2 -1.6,0.6 l -22,18.7 c -1.2,1.1 -2.2,1.3 -2.9,0.5 -1,-1 -1,-1.9 0,-2.8 l 23,-19.1 c 1.3,-1.1 1.2,-2.4 0,-4.2 -1.1,-1.2 -2.3,-1.6 -3.4,-1.2 -0.7,-0.2 -1.4,0 -2.1,0.5 l -22.9,17.5 c -1.3,1 -2.3,1.1 -3,0.4 -0.6,-0.8 -0.8,-1.5 -0.5,-2.1 l 25,-18.6 c 0.3,-0.3 0.5,-0.7 0.6,-1.2 0.3,-0.8 0,-1.8 -0.8,-3 -1.2,-1.6 -2.5,-1.9 -3.9,-1.1 -0.2,0.1 -0.4,0.2 -0.5,0.3 l -24,16 c -1.4,0.9 -2.4,0.9 -3,0.1 -0.9,-1.1 -0.8,-2 0.3,-2.8 L 83,277.3 81.6,275.4 60.3,288.8 c -2.4,1.4 -2.8,3.5 -1,6.3 1.6,2.6 3.4,3.1 5.6,1.5 l 22.6,-15.7 c 1.1,-0.8 1.8,-0.9 2.2,-0.5 0.5,0.5 0.7,1 0.6,1.5 -0.2,0.3 -0.4,0.5 -0.8,0.8 l -22.1,16 c -2.4,1.5 -2.6,3.7 -0.7,6.4 1.7,2.5 3.6,2.9 5.7,1.2 l 5.8,-4.6 v 0 L 94.5,289 c 0.3,-0.3 0.6,-0.5 0.9,-0.7 0.3,0 0.5,0 0.7,0.2 1,0.9 0.9,1.9 -0.3,2.9 L 75.6,308 c -2.2,1.6 -2.3,3.8 -0.3,6.5 1.8,2.4 3.7,2.7 5.7,0.9 L 101.7,297 c 1,-0.8 1.7,-1.1 2.1,-0.7 0.3,0.2 0.6,0.5 0.7,0.8 0,0.6 -0.3,1.1 -0.9,1.7 l -20.1,18.7 c -2.2,1.8 -2.1,4 0.1,6.5 2,2.2 3.9,2.4 5.8,0.5 l 19.4,-19.8 c 0.9,-1 1.5,-1.3 2,-0.9 0.3,0.2 0.6,0.5 0.7,0.8 0,0.5 -0.2,1 -0.8,1.7 l -18.7,20 c -2.1,2 -1.9,4.1 0.5,6.5 2.1,2.1 4,2.1 5.8,0.1 l 18,-21.2 c 0.8,-0.9 1.5,-1.3 1.9,-1 0.6,0.3 0.9,0.7 1,1.2 -0.1,0.3 -0.3,0.6 -0.6,1 l -17.3,21.3 c -1.9,2.1 -1.6,4.2 0.9,6.4 2.3,2 4.2,1.9 5.8,-0.3 l 4,-5.4 v 0.1 l 12.5,-17 c 0.8,-1.1 1.4,-1.5 1.9,-1.2 0.5,0.2 0.8,0.5 1,0.8 -0.1,0.4 -0.3,0.9 -0.6,1.4 l -15.5,22.7 c -1.6,2.3 -1.1,4.4 1.6,6.3 2.4,1.8 4.3,1.5 5.7,-0.8 l 14.6,-23.7 c 0.4,-0.8 0.9,-1.2 1.4,-1.4 0.1,-0.1 0.2,-0.1 0.3,0 1.3,0.5 1.5,1.5 0.7,2.9 l -14,23.3 c -1.6,2.3 -1,4.4 1.8,6.2 2.5,1.6 4.4,1.2 5.7,-1.2 l 13.3,-24.4 c 0.7,-1.2 1.2,-1.7 1.7,-1.4 0.4,0.1 0.7,0.3 1,0.5 0.1,0.5 0,1.1 -0.3,1.9 l -12.7,24.6 c -1.4,2.4 -0.6,4.4 2.3,6 2.6,1.4 4.4,0.9 5.6,-1.6 l 11.6,-25.3 c 0.5,-1.2 1.1,-1.7 1.6,-1.6 0.4,0.1 0.7,0.3 0.9,0.5 0.2,0.5 0.2,1.1 -0.2,1.9 L 143,359.8 c -1.2,2.5 -0.3,4.5 2.7,5.9 2.6,1.2 4.5,0.6 5.5,-2 l 9.8,-26.1 c 0.5,-1.3 1,-1.8 1.5,-1.7 0.6,0.1 1.1,0.4 1.3,0.8 0,0.3 -0.1,0.7 -0.2,1.2 l -9.2,26.1 c -1.1,2.6 0,4.5 3.1,5.6 2.7,1.1 4.5,0.3 5.3,-2.3 l 1.9,-6.4 h 0.1 l 6.1,-20.4 c 0.3,-1.2 0.8,-1.8 1.3,-1.8 0.5,0.1 0.9,0.3 1.2,0.6 0.1,0.3 0,0.8 -0.1,1.4 l -6.9,26.8 c -0.8,2.7 0.3,4.5 3.5,5.4 2.9,0.8 4.6,-0.1 5.1,-2.8 l 5.8,-27.4 c 0,-0.3 0.1,-0.5 0.1,-0.6 0.2,-0.5 0.4,-0.9 0.6,-1.2 0.2,-0.1 0.3,-0.1 0.5,-0.1 1.4,0 1.9,0.8 1.6,2.4 L 178,370 c -0.8,2.8 0.5,4.5 3.7,5.2 2.9,0.7 4.6,-0.3 5,-3 l 4.6,-27.6 c 0.2,-1.3 0.5,-2 1.1,-2 0.4,0 0.8,0.1 1.1,0.3 0.3,0.3 0.4,1 0.3,1.9 l -3.9,27.4 c -0.5,2.9 0.8,4.5 4.1,4.9 2.9,0.5 4.5,-0.6 4.8,-3.3 l 2.6,-27.9 c 0.2,-1.3 0.5,-2 1,-2 0.5,-0.1 0.8,0 1.1,0.1 0.3,0.4 0.5,1 0.4,1.9 l -2,27.6 c -0.3,2.9 1.2,4.4 4.5,4.7 2.9,0.2 4.4,-1 4.5,-3.8 l 0.8,-28 c 0,-1.3 0.3,-2 0.8,-2 0.6,-0.2 1.1,-0.1 1.5,0.2 0.1,0.3 0.1,0.7 0.1,1.2 l -0.1,27.8 c -0.1,2.8 1.4,4.2 4.7,4.3 3,0 4.4,-1.3 4.3,-4 l -0.3,-6.7 h 0.1 l -0.9,-21.3 c -0.1,-1.4 0.1,-2.1 0.7,-2.2 0.5,-0.1 0.9,-0.1 1.2,0.1 0.2,0.3 0.4,0.8 0.4,1.3 l 2.3,27.7 c 0.1,2.8 1.7,4.1 5,3.9 3,-0.2 4.3,-1.6 3.9,-4.4 l -3.5,-27.8 c -0.1,-1.3 0,-2 0.5,-2.2 0.6,-0.2 1.1,-0.2 1.5,0 0.2,0.3 0.4,0.8 0.4,1.3 l 3.9,27.5 c 0.3,2.8 2,4 5.3,3.5 3,-0.4 4.2,-1.9 3.6,-4.6 L 242,342.5 c -0.3,-1.3 -0.1,-2 0.4,-2.2 0.4,-0.2 0.7,-0.3 1.1,-0.2 0.4,0.2 0.7,0.8 0.9,1.7 l 5.8,27.1 c 0.4,2.8 2.3,3.8 5.5,3.1 2.9,-0.6 4,-2.2 3.2,-4.8 L 252,340.1 c -0.4,-1.3 -0.3,-2 0.2,-2.3 0.4,-0.2 0.8,-0.2 1.1,-0.2 0.4,0.2 0.8,0.7 1,1.5 l 7.6,26.7 c 0.6,2.7 2.5,3.7 5.7,2.7 2.8,-0.8 3.8,-2.5 3,-5.1 l -8.9,-26.5 c -0.4,-1.2 -0.4,-2 0.1,-2.2 0.5,-0.4 1,-0.4 1.5,-0.3 0.1,0.3 0.4,0.6 0.5,1.1 l 9.4,26 c 0.8,2.7 2.8,3.5 5.9,2.3 2.8,-1 3.7,-2.7 2.6,-5.3 l -2.5,-6.1 v -0.1 l -8.1,-19.6 c -0.5,-1.2 -0.5,-1.9 -0.1,-2.2 0.4,-0.3 0.9,-0.5 1.2,-0.4 0.3,0.2 0.6,0.6 0.9,1.1 l 11.5,25.2 c 1.1,2.5 3.1,3.1 6.1,1.7 2.7,-1.2 3.4,-3.1 2.1,-5.5 l -2.5,-5 v 0 L 280,327.8 c -0.1,-0.2 -0.2,-0.5 -0.3,-0.7 0,-0.6 0.2,-1 0.6,-1.2 0.9,-0.4 1.6,-0.1 2.3,1.1 l 13.4,24.2 c 1.3,2.6 3.4,3 6.3,1.4 2.6,-1.3 3.1,-3.2 1.7,-5.5 l -14.6,-23.8 c -0.7,-1.1 -0.8,-1.8 -0.5,-2.2 0.4,-0.3 0.7,-0.5 1,-0.6 0.5,0.1 1,0.5 1.5,1.2 l 15,23.3 c 1.5,2.4 3.6,2.7 6.4,1 2.5,-1.6 2.9,-3.5 1.3,-5.7 l -16.2,-22.8 c -0.7,-1.1 -1,-1.8 -0.5,-2.1 0.3,-0.3 0.5,-0.6 0.9,-0.6 0.4,0 1,0.4 1.5,1.1 l 16.6,22.1 c 1.5,2.4 3.7,2.5 6.3,0.5 2.4,-1.7 2.7,-3.6 1,-5.7 l -17.8,-21.6 c -0.8,-1 -1,-1.7 -0.7,-2.1 0.4,-0.5 0.9,-0.8 1.3,-0.8 0.3,0.2 0.6,0.4 0.9,0.8 l 18.1,20.9 c 1.7,2.3 3.9,2.3 6.4,0.1 2.2,-1.9 2.4,-3.8 0.5,-5.8 l -4.5,-4.8 v 0 L 313.3,304 c -0.9,-1 -1.2,-1.6 -0.9,-2.1 0.3,-0.4 0.7,-0.7 1,-0.8 0.4,0.2 0.8,0.4 1.2,0.8 l 19.8,19.3 c 1.9,2.1 4,1.9 6.3,-0.4 2.1,-2.2 2.1,-4.1 0.1,-5.9 l -19.5,-17.5 c -1.4,-1.3 -1.8,-2.4 -1.2,-3.1 0.4,-0.5 0.9,-0.6 1.6,-0.4 0,0.1 0.1,0.1 0.1,0.2 l 7.8,6.6 13.5,12 c 2,1.9 4.1,1.6 6.3,-0.9 2,-2.3 1.9,-4.3 -0.2,-6 l -21.6,-17.3 c -1,-0.8 -1.3,-1.4 -1.1,-1.9 0.7,-1.2 1.6,-1.4 2.9,-0.4 l 17.7,12.3 6.5,4.7 c 1,0.8 2.5,0.2 4.3,-1.8 z"
   id="path8"
   inkscape:connector-curvature="0"
   style="fill:#ed1c24" /><g
   aria-label="D"
   transform="rotate(-30.997165,-717.63976,-199)"
   style="font-style:normal;font-variant:normal;font-weight:bold;font-stretch:normal;font-size:48.67466736px;font-family:'Nirmala UI';-inkscape-font-specification:'Nirmala UI, Bold';font-variant-ligatures:normal;font-variant-caps:normal;font-variant-numeric:normal;font-feature-settings:normal;text-align:start;writing-mode:lr-tb;text-anchor:start;fill:#010000;fill-opacity:1;stroke-width:1.00000846"
   id="text10"><path
     d="M -135.08553,529.49048 V 495.4087 h 12.0736 q 18.15793,0 18.15793,16.61309 0,7.96192 -4.96729,12.7153 -4.94352,4.75339 -13.19064,4.75339 z m 7.67672,-27.83107 v 21.60413 h 3.80271 q 4.99105,0 7.81931,-2.99463 2.85204,-2.99463 2.85204,-8.15206 0,-4.87222 -2.82827,-7.65295 -2.8045,-2.80449 -7.89062,-2.80449 z"
     style="font-style:normal;font-variant:normal;font-weight:bold;font-stretch:normal;font-size:48.67466736px;font-family:'Nirmala UI';-inkscape-font-specification:'Nirmala UI, Bold';font-variant-ligatures:normal;font-variant-caps:normal;font-variant-numeric:normal;font-feature-settings:normal;text-align:start;writing-mode:lr-tb;text-anchor:start;fill:#010000;fill-opacity:1;stroke-width:1.00000846"
     id="path4692"
     inkscape:connector-curvature="0" /></g><g
   aria-label="I"
   transform="rotate(-10.999791,-2066.7335,-199)"
   style="font-style:normal;font-variant:normal;font-weight:bold;font-stretch:normal;font-size:48.67466736px;font-family:'Nirmala UI';-inkscape-font-specification:'Nirmala UI, Bold';font-variant-ligatures:normal;font-variant-caps:normal;font-variant-numeric:normal;font-feature-settings:normal;text-align:start;writing-mode:lr-tb;text-anchor:start;fill:#010000;fill-opacity:1;stroke-width:0.99997163"
   id="text14"><path
     d="M 97.029,535.4422 H 89.352282 V 501.36043 H 97.029 Z"
     style="font-style:normal;font-variant:normal;font-weight:bold;font-stretch:normal;font-size:48.67466736px;font-family:'Nirmala UI';-inkscape-font-specification:'Nirmala UI, Bold';font-variant-ligatures:normal;font-variant-caps:normal;font-variant-numeric:normal;font-feature-settings:normal;text-align:start;writing-mode:lr-tb;text-anchor:start;fill:#010000;fill-opacity:1;stroke-width:0.99997163"
     id="path4689"
     inkscape:connector-curvature="0" /></g><g
   aria-label="N"
   transform="rotate(4.9967919,4560.7793,-199)"
   style="font-style:normal;font-variant:normal;font-weight:bold;font-stretch:normal;font-size:48.67466736px;font-family:'Nirmala UI';-inkscape-font-specification:'Nirmala UI, Bold';font-variant-ligatures:normal;font-variant-caps:normal;font-variant-numeric:normal;font-feature-settings:normal;text-align:start;writing-mode:lr-tb;text-anchor:start;fill:#010000;fill-opacity:1"
   id="text18"><path
     d="m 280.06775,486.56616 h -7.74802 l -14.04625,-21.414 q -1.23588,-1.87759 -1.71122,-2.82826 h -0.0951 q 0.19013,1.80628 0.19013,5.51392 v 18.72834 h -7.24891 v -34.08177 h 8.27089 l 13.52338,20.74853 q 0.92691,1.40224 1.71122,2.78073 h 0.0951 q -0.19014,-1.18835 -0.19014,-4.68209 v -18.84717 h 7.24892 z"
     style="font-style:normal;font-variant:normal;font-weight:bold;font-stretch:normal;font-size:48.67466736px;font-family:'Nirmala UI';-inkscape-font-specification:'Nirmala UI, Bold';font-variant-ligatures:normal;font-variant-caps:normal;font-variant-numeric:normal;font-feature-settings:normal;text-align:start;writing-mode:lr-tb;text-anchor:start;fill:#010000;fill-opacity:1"
     id="path4686"
     inkscape:connector-curvature="0" /></g><g
   aria-label="A"
   transform="rotate(27.000655,828.87378,-199)"
   style="font-style:normal;font-variant:normal;font-weight:bold;font-stretch:normal;font-size:48.67466736px;font-family:'Nirmala UI';-inkscape-font-specification:'Nirmala UI, Bold';font-variant-ligatures:normal;font-variant-caps:normal;font-variant-numeric:normal;font-feature-settings:normal;text-align:start;writing-mode:lr-tb;text-anchor:start;fill:#010000;fill-opacity:1;stroke-width:0.99999851"
   id="text22"><path
     d="m 479.29719,345.73355 h -8.36596 l -2.42422,-7.58165 h -12.12114 l -2.40045,7.58165 h -8.31843 l 12.40634,-34.08177 h 9.10273 z m -12.54893,-13.47585 -3.66011,-11.45566 q -0.40404,-1.28341 -0.57041,-3.06593 h -0.19013 q -0.11884,1.49732 -0.59418,2.97087 l -3.70764,11.55072 z"
     style="font-style:normal;font-variant:normal;font-weight:bold;font-stretch:normal;font-size:48.67466736px;font-family:'Nirmala UI';-inkscape-font-specification:'Nirmala UI, Bold';font-variant-ligatures:normal;font-variant-caps:normal;font-variant-numeric:normal;font-feature-settings:normal;text-align:start;writing-mode:lr-tb;text-anchor:start;fill:#010000;fill-opacity:1;stroke-width:0.99999851"
     id="path4683"
     inkscape:connector-curvature="0" /></g><g
   aria-label="T"
   transform="rotate(33.998337,650.93345,-199)"
   style="font-style:normal;font-variant:normal;font-weight:bold;font-stretch:normal;font-size:48.67466736px;font-family:'Nirmala UI';-inkscape-font-specification:'Nirmala UI, Bold';font-variant-ligatures:normal;font-variant-caps:normal;font-variant-numeric:normal;font-feature-settings:normal;text-align:start;writing-mode:lr-tb;text-anchor:start;fill:#010000;fill-opacity:1;stroke-width:1.00005567"
   id="text26"><path
     d="m 522.04833,474.66865 h -9.72068 v 27.83108 h -7.70048 v -27.83108 h -9.67314 v -6.2507 h 27.0943 z"
     style="font-style:normal;font-variant:normal;font-weight:bold;font-stretch:normal;font-size:48.67466736px;font-family:'Nirmala UI';-inkscape-font-specification:'Nirmala UI, Bold';font-variant-ligatures:normal;font-variant-caps:normal;font-variant-numeric:normal;font-feature-settings:normal;text-align:start;writing-mode:lr-tb;text-anchor:start;fill:#010000;fill-opacity:1;stroke-width:1.00005567"
     id="path4668"
     inkscape:connector-curvature="0" /></g><g
   aria-label="E"
   transform="rotate(16.996151,1331.8461,-199)"
   style="font-style:normal;font-variant:normal;font-weight:bold;font-stretch:normal;font-size:48.67466736px;font-family:'Nirmala UI';-inkscape-font-specification:'Nirmala UI, Bold';font-variant-ligatures:normal;font-variant-caps:normal;font-variant-numeric:normal;font-feature-settings:normal;text-align:start;writing-mode:lr-tb;text-anchor:start;fill:#010000;fill-opacity:1;stroke-width:0.99997449"
   id="text30"><path
     d="M 385.4414,634.71808 H 365.00184 V 600.6363 h 19.65525 v 6.25071 h -11.97853 v 7.58165 h 11.14669 v 6.22693 h -11.14669 v 7.79555 h 12.76284 z"
     style="font-style:normal;font-variant:normal;font-weight:bold;font-stretch:normal;font-size:48.67466736px;font-family:'Nirmala UI';-inkscape-font-specification:'Nirmala UI, Bold';font-variant-ligatures:normal;font-variant-caps:normal;font-variant-numeric:normal;font-feature-settings:normal;text-align:start;writing-mode:lr-tb;text-anchor:start;fill:#010000;fill-opacity:1;stroke-width:0.99997449"
     id="path4671"
     inkscape:connector-curvature="0" /></g><g
   aria-label="S"
   style="font-style:normal;font-variant:normal;font-weight:bold;font-stretch:normal;font-size:48.67466736px;font-family:'Nirmala UI';-inkscape-font-specification:'Nirmala UI, Bold';font-variant-ligatures:normal;font-variant-caps:normal;font-variant-numeric:normal;font-feature-settings:normal;text-align:start;writing-mode:lr-tb;text-anchor:start;fill:#010000;fill-opacity:1"
   id="text34"
   transform="translate(0,-398)"><path
     d="m 196.97856,720.69282 v -7.60542 q 2.06772,1.73499 4.49195,2.61436 2.42422,0.85561 4.89598,0.85561 1.44979,0 2.5193,-0.26143 1.09328,-0.26144 1.80628,-0.71301 0.73678,-0.47534 1.09328,-1.09328 0.35651,-0.64171 0.35651,-1.37848 0,-0.99821 -0.57041,-1.78252 -0.57041,-0.78431 -1.56862,-1.44978 -0.97444,-0.66548 -2.32915,-1.28342 -1.35472,-0.61794 -2.92334,-1.25964 -3.99284,-1.66369 -5.9655,-4.06415 -1.94888,-2.40046 -1.94888,-5.79913 0,-2.66189 1.06951,-4.56325 1.06951,-1.92512 2.89956,-3.161 1.85382,-1.23588 4.27805,-1.80629 2.42423,-0.59417 5.13366,-0.59417 2.66189,0 4.70585,0.33274 2.06772,0.30897 3.80271,0.97444 v 7.10631 q -0.85561,-0.59417 -1.87759,-1.04574 -0.99821,-0.45157 -2.06772,-0.73678 -1.06952,-0.30897 -2.13903,-0.45157 -1.04574,-0.1426 -1.99642,-0.1426 -1.30718,0 -2.37669,0.26144 -1.06951,0.23766 -1.80629,0.68924 -0.73677,0.45157 -1.14081,1.09328 -0.40404,0.61794 -0.40404,1.40224 0,0.85561 0.45157,1.54485 0.45157,0.66548 1.28342,1.28342 0.83184,0.59417 2.02019,1.18834 1.18834,0.57041 2.68566,1.18835 2.04395,0.85561 3.66011,1.83005 1.63991,0.95068 2.80449,2.16279 1.16458,1.21212 1.78252,2.78074 0.61794,1.54485 0.61794,3.61257 0,2.85203 -1.09328,4.80092 -1.06951,1.92512 -2.92333,3.13723 -1.85382,1.18835 -4.32558,1.71122 -2.44799,0.52287 -5.18119,0.52287 -2.8045,0 -5.34756,-0.47534 -2.51929,-0.47533 -4.37311,-1.42601 z"
     style="font-style:normal;font-variant:normal;font-weight:bold;font-stretch:normal;font-size:48.67466736px;font-family:'Nirmala UI';-inkscape-font-specification:'Nirmala UI, Bold';font-variant-ligatures:normal;font-variant-caps:normal;font-variant-numeric:normal;font-feature-settings:normal;text-align:start;writing-mode:lr-tb;text-anchor:start;fill:#010000;fill-opacity:1"
     id="path4674"
     inkscape:connector-curvature="0" /></g><g
   aria-label="T"
   transform="rotate(-16.996151,-1331.8461,-199)"
   style="font-style:normal;font-variant:normal;font-weight:bold;font-stretch:normal;font-size:48.67466736px;font-family:'Nirmala UI';-inkscape-font-specification:'Nirmala UI, Bold';font-variant-ligatures:normal;font-variant-caps:normal;font-variant-numeric:normal;font-feature-settings:normal;text-align:start;writing-mode:lr-tb;text-anchor:start;fill:#010000;fill-opacity:1;stroke-width:0.99997449"
   id="text38"><path
     d="m 38.632498,729.66014 h -9.720673 v 27.83107 H 21.21134 v -27.83107 h -9.673139 v -6.2507 h 27.094297 z"
     style="font-style:normal;font-variant:normal;font-weight:bold;font-stretch:normal;font-size:48.67466736px;font-family:'Nirmala UI';-inkscape-font-specification:'Nirmala UI, Bold';font-variant-ligatures:normal;font-variant-caps:normal;font-variant-numeric:normal;font-feature-settings:normal;text-align:start;writing-mode:lr-tb;text-anchor:start;fill:#010000;fill-opacity:1;stroke-width:0.99997449"
     id="path4677"
     inkscape:connector-curvature="0" /></g><g
   aria-label="E"
   transform="rotate(-33.998337,-650.93345,-199)"
   style="font-style:normal;font-variant:normal;font-weight:bold;font-stretch:normal;font-size:48.67466736px;font-family:'Nirmala UI';-inkscape-font-specification:'Nirmala UI, Bold';font-variant-ligatures:normal;font-variant-caps:normal;font-variant-numeric:normal;font-feature-settings:normal;text-align:start;writing-mode:lr-tb;text-anchor:start;fill:#010000;fill-opacity:1;stroke-width:1.00005567"
   id="text42"><path
     d="m -151.07841,737.66431 h -20.43955 v -34.08178 h 19.65524 v 6.2507 h -11.97853 v 7.58165 h 11.14669 v 6.22694 h -11.14669 v 7.79555 h 12.76284 z"
     style="font-style:normal;font-variant:normal;font-weight:bold;font-stretch:normal;font-size:48.67466736px;font-family:'Nirmala UI';-inkscape-font-specification:'Nirmala UI, Bold';font-variant-ligatures:normal;font-variant-caps:normal;font-variant-numeric:normal;font-feature-settings:normal;text-align:start;writing-mode:lr-tb;text-anchor:start;fill:#010000;fill-opacity:1;stroke-width:1.00005567"
     id="path4680"
     inkscape:connector-curvature="0" /></g><g
   id="g50"
   transform="translate(0,-398)">
		<path
   inkscape:connector-curvature="0"
   id="path48"
   d="m 210.1,402.3 c -53,0 -98.2,19 -135.6,57 -37.5,38.1 -56.2,84 -56.2,137.8 0,53.8 18.7,99.8 56.2,137.8 37.4,38 82.6,57.1 135.6,57.1 53,0 98.2,-19.1 135.7,-57.1 37.4,-38 56.2,-84 56.2,-137.8 0,-53.8 -18.8,-99.7 -56.2,-137.8 -37.5,-38 -82.7,-57 -135.7,-57 z M 77.5,462.8 c 36.6,-37.1 80.7,-55.6 132.3,-55.6 51.6,0 95.8,18.5 132.3,55.6 36.5,37 54.8,81.8 54.8,134.2 0,52.5 -18.3,97.2 -54.8,134.3 -36.5,37.1 -80.7,55.6 -132.3,55.6 -51.6,0 -95.7,-18.5 -132.3,-55.6 C 41,694.2 22.8,649.5 22.8,597 22.8,544.6 41,499.8 77.5,462.8 Z" />
	</g><g
   id="g58"
   transform="translate(0,-398)">
		<path
   style="fill:#ed1c24"
   inkscape:connector-curvature="0"
   id="path52"
   d="m 323.4,522.7 c -3.9,0.7 -9.2,0.6 -15.7,-0.1 -4.1,-0.5 -7.7,0 -10.8,1.4 -3.8,2 -6.5,4.4 -8,7.1 -1.7,3.1 -2,6.6 -0.9,10.4 1.4,4.5 4.6,8.9 9.7,13 l 15.5,14.2 c 3.2,2.9 6.9,4 11.1,3.4 2,-0.2 3.5,-0.5 4.7,-0.9 2.4,-0.7 4.8,-1.4 7,-2.2 5.4,-1.8 10.2,-3.5 14.5,-5.3 1.2,-0.6 1.7,-1.9 1.5,-3.8 -0.3,-2.3 0.2,-3.8 1.6,-4.7 l 66.8,-22.1 -4.4,-12.9 -66.8,24.2 c -1.5,0.4 -2.8,-1.3 -4,-5.1 -0.5,-1.6 -1.8,-2.1 -4.1,-1.4 l -33,11.4 c -3.6,1 -7,0.7 -10.2,-1 -2.3,-1.5 -4,-3.7 -5.2,-6.5 -1.2,-3.7 -0.9,-6.7 0.9,-9.2 2.1,-2.8 5,-4.6 8.8,-5.5 0.5,-0.3 4.6,-0.6 12.2,-0.9 7.5,-0.3 13.2,-1.6 17,-4 l -1.3,-1.9 c -1.7,1.1 -3.9,1.9 -6.9,2.4 z" />
		<path
   style="fill:#ed1c24"
   inkscape:connector-curvature="0"
   id="path54"
   d="m 262.4,546 c 2,2.1 3.7,4.3 5.4,6.5 3.3,4.4 6.1,9 8.4,13.9 1.9,4 3.5,8.1 4.7,12.3 0.4,2 0.9,3.7 1.3,5.1 0.9,3 1.7,4.5 2.6,4.6 1.3,0.3 2.5,0 3.6,-0.8 0.7,-0.5 1,-1.8 0.8,-3.8 0,-1.3 -0.3,-3 -0.8,-5.1 -3,-15.5 -10.4,-29.2 -22.2,-41.1 -15.9,-15.9 -35.1,-23.8 -57.5,-23.8 -22.5,0 -41.7,7.9 -57.5,23.8 -2.7,2.7 -5.1,5.4 -7.4,8.2 l -8.5,9.8 c -1.5,1.5 -2.8,2.7 -4.3,3.7 -2.7,2 -5.4,3.1 -8,3.4 l -6.3,0.9 c -2.3,0.2 -3.6,-0.2 -4.1,-1.3 -0.5,-1.2 0.3,-2.5 2.2,-4.1 L 129,546.7 c 0.8,-0.7 1.5,-1.4 2,-2.2 1.3,-1.6 2.2,-3.3 2.8,-5.1 1,-3.4 0.9,-6.8 -0.4,-10.3 -0.7,-1.8 -1.5,-3.4 -2.4,-4.7 -0.7,-1.1 -1.4,-1.9 -2.2,-2.7 -2.4,-2.1 -6,-3.2 -10.6,-3.1 -7.6,0.1 -13.7,-0.4 -18.2,-1.5 -5,-1.5 -8.8,-3.2 -11.5,-5.3 l -1,2.4 c 3.8,2.7 8.6,4.7 14.2,6.1 4.9,1 10.6,1.7 17,2.1 4,0.5 6.8,1.5 8.5,3 2.4,2.2 3.6,4.8 3.8,8 0,0.2 0,0.2 0,0.4 0.1,0.4 0.1,0.8 0,1.3 -0.2,2.3 -1.3,4.6 -3.5,7.1 -2.6,2.3 -6,3.6 -10.1,3.9 l -42.5,-1.9 c -2.4,-0.2 -4.2,1.1 -5.5,4 -1.2,2.8 -2.6,4.1 -4.1,3.9 L 0,550.4 v 13.5 h 65.3 c 2.6,0.1 4.2,1.2 4.7,3.1 1,3.3 2.8,5 5.2,5.3 l 43.6,-0.3 c 5.2,0 9.3,-1.7 12.2,-5.3 0.3,-0.4 0.7,-0.8 1,-1.2 l 14.3,-19.7 c 1.8,-2.2 3.7,-4.4 5.8,-6.6 15.6,-15.8 34.4,-23.8 56.5,-23.8 22,0 40.8,8 56.4,23.8 10.1,10.3 16.9,21.9 20.4,34.8 0.5,1.6 0.8,3.2 1.2,4.7 0.2,1.2 -0.2,2 -1.3,2.4 -1.2,0.5 -2,-0.3 -2.5,-2.4 -0.4,-1.2 -0.7,-2.4 -1.1,-3.6 -1.2,-3.6 -2.6,-7 -4.2,-10.3 -3.6,-7.3 -8.2,-14.2 -13.9,-20.5 -15,-16.2 -33,-24.4 -54.2,-24.4 -21.1,0 -39.1,8.2 -54.1,24.4 -3.5,3.9 -6.6,7.9 -9.3,12.1 -2.5,4 -4.7,8.1 -6.5,12.5 -1.2,2.6 -2.1,5.3 -2.9,8.1 -0.2,0.6 -0.3,1.2 -0.4,1.8 -0.5,2 -0.9,3.7 -0.9,5 -0.1,2 0.2,3.3 0.9,3.8 1.1,0.8 2.5,1.1 4,0.8 0.9,-0.1 1.9,-1.6 2.9,-4.6 0.5,-1.4 1,-3.1 1.6,-5.1 1.2,-4.5 3,-8.9 5.3,-13 1.8,-3.6 4.1,-7 6.6,-10.2 1.3,-1.7 2.7,-3.4 4.2,-5 13.4,-14.7 29.5,-22 48.3,-22 18.9,0 35,7.3 48.3,22 3.7,4 6.9,8.4 9.5,12.9 2.5,4.1 4.5,8.4 6.1,13 0.3,0.7 0.6,1.5 0.8,2.3 0.3,1.3 0,2.2 -1.1,2.7 -1,0.5 -1.8,-0.4 -2.4,-2.7 -0.1,-0.3 -0.2,-0.6 -0.4,-1 -3,-9.4 -8.1,-17.9 -15.2,-25.4 -12.5,-13.5 -27.7,-20.2 -45.4,-20.2 -17.8,0 -32.9,6.7 -45.5,20.2 -7.3,7.8 -12.5,16.6 -15.5,26.4 -0.7,2.1 -1,3.9 -1,5.6 0,1.7 0.3,2.8 1,3.3 1,0.8 2.2,1.1 3.3,0.9 1,-0.1 1.9,-1.3 2.4,-3.5 0.6,-2.2 1.2,-4.2 1.9,-6.2 2.6,-7.9 6.8,-15 12.7,-21.4 11.2,-12.2 24.7,-18.4 40.5,-18.4 15.9,0 29.4,6.2 40.6,18.4 5.8,6.4 10.2,13.5 13,21.3 0.2,1.3 -0.2,2.2 -1.3,2.7 -1.1,0.5 -2.1,-0.4 -2.8,-2.7 -2.6,-6.8 -6.6,-13.1 -11.8,-18.8 -10.4,-11.1 -22.9,-16.7 -37.5,-16.7 -14.6,0 -27.1,5.6 -37.5,16.7 -5.3,5.7 -9.2,12 -11.8,18.8 v 0 c -0.6,2 -1.1,3.6 -1.3,5 -0.4,1.9 -0.3,3.2 0.3,3.8 1,0.9 2,1.4 3,1.4 1,-0.1 1.9,-1.1 2.7,-3.2 0.7,-2.1 1.6,-4.4 2.5,-7 2.3,-4.8 5.3,-9.4 9.1,-13.5 9.1,-10 20.2,-15 33.1,-15 12.9,0 23.9,5 33,15 3.8,4.1 6.9,8.7 9.1,13.5 0.5,1.2 0.1,2.2 -1.1,2.9 -1.3,0.7 -2.3,0.1 -3.2,-1.8 l -0.6,-1.1 c -1.9,-4.1 -4.5,-7.9 -7.8,-11.4 -8.2,-8.7 -18,-13.1 -29.5,-13.1 -11.6,0 -21.4,4.4 -29.6,13.1 -3.3,3.5 -5.9,7.3 -7.9,11.4 -0.9,2 -1.6,3.8 -2,5.4 -0.3,1.6 -0.2,2.7 0.5,3.4 1,0.9 2.1,1.4 3.5,1.4 0.8,0.1 1.6,-1 2.4,-3.1 0.8,-2.1 1.9,-4.5 3.3,-7.1 1.3,-2.1 2.8,-4.1 4.6,-6 6.9,-7.6 15.3,-11.4 25.1,-11.4 9.9,0 18.2,3.8 25.2,11.4 1.7,1.9 3.2,3.9 4.6,6 0.7,1.4 0.6,2.5 -0.5,3.2 -1.1,0.6 -2.2,0.1 -3.2,-1.7 -0.2,-0.5 -0.6,-1 -0.9,-1.5 -0.9,-1.5 -2,-2.8 -3.2,-4.1 -6,-6.5 -13.3,-9.8 -21.8,-9.7 -8.5,-0.1 -15.8,3.2 -21.8,9.7 -1.3,1.3 -2.4,2.7 -3.4,4.1 -1.1,1.8 -1.9,3.3 -2.4,4.6 -0.8,1.8 -1,3 -0.6,3.8 0.8,1.1 1.7,1.7 2.7,1.9 1.1,0.2 1.9,-0.5 2.6,-1.9 0.7,-1.5 2,-3.5 3.9,-6.2 0.2,-0.3 0.6,-0.7 0.9,-1 0.1,-0.2 0.2,-0.3 0.4,-0.4 0.2,-0.3 0.4,-0.5 0.7,-0.8 4.8,-4.7 10.5,-7.1 17,-7.1 4.7,0 8.9,1.2 12.6,3.5 0.1,0.1 0.2,0.1 0.3,0.2 1.4,0.9 2.8,2.1 4.2,3.4 1.2,1.3 1.5,2.3 1,3 -0.6,0.8 -1.1,1.1 -1.6,1.1 -0.5,0 -1.2,-0.5 -2.1,-1.4 -1,-0.9 -1.9,-1.7 -2.8,-2.4 -0.2,-0.1 -0.3,-0.2 -0.5,-0.3 -3.1,-2 -6.7,-3.1 -10.6,-3.1 -1.3,0 -2.6,0.2 -3.9,0.4 -2.4,0.5 -4.6,1.4 -6.7,2.7 -1.7,1.1 -3.1,2.4 -4.4,3.9 -1.3,1.6 -2.3,3 -3,4.4 -0.1,0.2 -0.2,0.3 -0.2,0.5 -0.6,1.2 -0.9,2.1 -1,2.8 -0.4,2.9 -1.1,4.2 -2.3,4.1 h -58 c -3.5,0.1 -6.4,1.4 -8.9,3.9 -1.9,1.9 -3.1,4.2 -3.6,6.9 -0.8,3.5 -2.8,5.5 -6,6 l -38.5,-0.8 c -2.7,-0.2 -4.5,0.9 -5.4,3.3 -1,2.4 -2.5,3.7 -4.5,4.1 L 0,616 0.1,630.2 h 63.4 c 2.2,-0.2 3.6,0.3 4.3,1.4 2.5,4.7 4.9,7 7.1,6.8 l 47,0.3 c 3.1,0 5.9,1.3 8.3,4 0.3,0.3 0.6,0.7 0.8,1.1 1.4,2 2.2,4.6 2.2,7.9 0.1,2.5 -0.6,4.9 -2.2,7.2 -0.5,0.8 -1.1,1.5 -1.8,2.3 -2.7,2.8 -8,4.3 -15.7,4.4 -7.7,0 -13.1,0.1 -16.3,0.3 -3.6,0.4 -8.8,2.9 -15.6,7.5 l 1.4,1.9 c 6.2,-4.2 10.7,-6.3 13.5,-6.3 4.2,0.1 7.8,0.4 10.7,1.1 6.1,1.5 11.2,2 15.4,1.7 3.1,-0.3 5.9,-1.3 8.4,-2.9 1.1,-0.7 2,-1.4 2.9,-2.3 3.4,-3.2 5.2,-7.4 5.3,-12.8 0,-4.1 -1,-7.8 -3,-11.2 -2.1,-3.6 -3.9,-6.6 -5.2,-9 0,-0.1 0,-0.1 -0.1,-0.2 -2.7,-5.1 -4.5,-10 -5.5,-14.5 -0.9,-4.4 -1.4,-8.5 -1.6,-12.2 -0.1,-3.4 0.6,-5.9 2,-7.4 1.2,-1.3 2.9,-2 5.2,-2.2 0.6,0 1.1,0 1.6,0 h 57.2 c 0.9,-0.1 1.4,-0.8 1.4,-2.1 l 0.3,-1.9 c 0.2,-2.1 0.7,-3.8 1.4,-5.3 0,-0.1 0.1,-0.2 0.2,-0.3 0.6,-1.2 1.4,-2.2 2.3,-3.3 2,-2.4 4.2,-4.3 6.7,-5.5 1.3,-0.6 2.6,-1 4,-1.3 1.2,-0.3 2.5,-0.4 3.8,-0.4 2.8,0 5.3,0.6 7.7,1.7 1.4,0.7 2.7,1.6 3.9,2.6 0.3,0.3 0.7,0.6 1,0.9 v 0 c 2.6,2.6 4.4,4.5 5.2,5.6 0.9,1.1 1.9,1.5 3,1.1 1.1,-0.4 1.9,-1.3 2.2,-2.5 0.3,-0.8 -0.1,-2 -1.2,-3.6 -0.7,-1.2 -1.8,-2.5 -3.2,-4.1 -0.2,-0.2 -0.4,-0.4 -0.5,-0.6 -5.2,-5.5 -11.3,-8.3 -18.5,-8.3 -7.3,0 -13.5,2.8 -18.6,8.3 -0.1,0.2 -0.3,0.4 -0.5,0.6 -0.3,0.3 -0.5,0.6 -0.8,1 -0.2,0.2 -0.5,0.6 -1,1.2 -0.5,0.7 -1,1.3 -1.5,1.9 -0.6,0.7 -1.3,0.6 -2.2,-0.1 -0.9,-0.8 -0.6,-2.1 1,-4 0.6,-0.8 1.3,-1.6 2.1,-2.4 5.9,-6.5 13,-9.8 21.4,-9.8 8.3,0 15.4,3.3 21.4,9.8 0.7,0.8 1.3,1.6 1.9,2.5 1.9,2.9 3.3,5.4 4.2,7.4 1,2 2,2.9 3,2.8 1,-0.1 2,-0.7 2.9,-1.7 0.5,-0.7 0.4,-2 -0.3,-3.8 -0.4,-1.3 -1.1,-2.9 -2,-4.8 -1.5,-2.6 -3.4,-5.2 -5.6,-7.5 -7.1,-7.6 -15.6,-11.4 -25.6,-11.4 -10,0 -18.6,3.8 -25.6,11.4 -2.3,2.3 -4.1,4.9 -5.6,7.5 -1.3,2.6 -2.6,3.6 -3.9,2.9 -1.2,-0.6 -1.5,-1.6 -0.9,-2.9 1.8,-3.5 4.1,-6.8 6.9,-9.8 8,-8.8 17.7,-13.2 29,-13.1 11.3,-0.1 21,4.3 29,13.1 2.8,3 5.1,6.3 7,9.8 1.1,2.8 2.2,5.2 3.2,7.3 1,2 2,3 3.1,3 1.1,-0.1 2.1,-0.6 3.1,-1.5 0.5,-0.7 0.6,-1.9 0.1,-3.9 -0.3,-1.3 -0.9,-2.9 -1.7,-4.9 -2.3,-5.5 -5.6,-10.5 -9.9,-15.2 -9.3,-9.9 -20.5,-14.9 -33.7,-14.9 -13.1,0 -24.4,5 -33.7,14.9 -4.3,4.7 -7.6,9.7 -9.9,15.2 -1.1,2.4 -2.1,3.3 -3.3,2.8 -1.1,-0.6 -1.5,-1.5 -1,-2.8 2.6,-6.2 6.2,-11.9 11,-17.1 10.1,-11.2 22.4,-16.7 36.7,-16.7 14.4,0 26.7,5.5 36.8,16.7 4.8,5.2 8.4,10.9 10.9,17.1 0.9,2.4 1.7,4.7 2.4,6.8 0.7,2.1 1.6,3.2 2.6,3.3 1,0 2.1,-0.4 3.2,-1.2 0.6,-0.6 0.7,-1.9 0.4,-3.9 -0.2,-1.3 -0.6,-3 -1.2,-5 -0.1,-0.2 -0.1,-0.4 -0.2,-0.7 -2.9,-8.2 -7.4,-15.7 -13.6,-22.3 -11.4,-12.3 -25.2,-18.4 -41.3,-18.4 -16.1,0 -29.9,6.1 -41.3,18.4 -6.4,6.8 -11,14.5 -13.8,23 -0.6,2.1 -1.6,2.9 -2.8,2.4 -1.2,-0.4 -1.7,-1.2 -1.5,-2.4 3,-9.1 8,-17.4 14.8,-24.8 12.3,-13.5 27.2,-20.3 44.6,-20.3 17.5,0 32.3,6.8 44.7,20.3 6.7,7.4 11.7,15.7 14.7,24.8 0.7,2.4 1.4,4.7 2.2,6.8 0.7,2.1 1.6,3.2 2.5,3.3 1,0 2,-0.4 3,-1.2 0.6,-0.6 0.8,-1.9 0.5,-3.9 -0.2,-1.3 -0.6,-3 -1.2,-5 -1.8,-5.9 -4.3,-11.6 -7.5,-16.9 -2.3,-3.9 -5.2,-7.7 -8.3,-11.3 -0.4,-0.6 -0.9,-1.1 -1.4,-1.6 -13.6,-14.7 -30,-22 -49.2,-22 -17.4,0 -32.4,6 -45.2,17.9 -1.4,1.3 -2.7,2.7 -4,4.1 -1.6,1.7 -3.1,3.4 -4.5,5.2 -5.8,7.5 -10.1,15.7 -12.7,24.6 -0.6,2.1 -1.6,2.9 -3,2.4 -1.3,-0.4 -1.8,-1.2 -1.6,-2.4 1.9,-7.4 4.9,-14.4 9.1,-20.9 2.5,-4 5.4,-7.8 8.6,-11.4 0.1,-0.1 0.2,-0.3 0.4,-0.4 14.6,-16.3 32.3,-24.4 53.1,-24.4 20.7,0 38.4,8.1 53,24.4 z" />
		<path
   style="fill:#ed1c24"
   inkscape:connector-curvature="0"
   id="path56"
   d="m 311.5,592.9 c -3.1,1.8 -7.3,2.7 -12.4,2.8 L 230.9,595 c -1.6,0 -2.5,0.8 -2.8,2.4 -0.4,2.3 -1,4.3 -1.7,6.1 -0.7,1.3 -1.6,2.5 -2.5,3.6 -2,2.5 -4.3,4.3 -6.7,5.5 -2.4,1.2 -5,1.8 -7.8,1.8 -2.8,0 -5.4,-0.6 -7.8,-1.8 -1.3,-0.7 -2.6,-1.5 -3.8,-2.5 -0.4,-0.3 -0.7,-0.6 -1,-0.9 -2.6,-2.7 -4.4,-4.5 -5.3,-5.6 -0.9,-1.2 -1.8,-1.5 -2.9,-1.1 -1.1,0.4 -1.9,1.2 -2.2,2.4 -0.3,0.8 0.1,2 1.2,3.7 0.7,1.1 1.8,2.5 3.2,4 0.2,0.2 0.3,0.4 0.5,0.6 5.1,5.5 11.3,8.3 18.5,8.3 7.3,0 13.4,-2.8 18.5,-8.3 0.2,-0.2 0.4,-0.4 0.6,-0.6 0.3,-0.3 0.5,-0.6 0.8,-0.9 0.1,-0.2 0.5,-0.7 1,-1.3 0.5,-0.6 1,-1.3 1.5,-1.9 0.5,-0.6 1.2,-0.6 2.2,0.2 0.9,0.7 0.5,2 -1,3.9 -0.6,0.9 -1.3,1.7 -2.1,2.5 -5.9,6.5 -13,9.7 -21.4,9.7 -8.3,0 -15.5,-3.2 -21.4,-9.7 -0.7,-0.8 -1.4,-1.7 -1.9,-2.6 -1.9,-2.9 -3.3,-5.3 -4.3,-7.3 -0.9,-2 -1.9,-3 -2.9,-2.9 -1,0.1 -2,0.7 -2.9,1.8 -0.5,0.6 -0.4,1.9 0.2,3.8 0.5,1.3 1.1,2.9 2.1,4.7 1.5,2.7 3.4,5.2 5.6,7.6 7.1,7.6 15.6,11.3 25.6,11.3 10,0 18.6,-3.7 25.6,-11.3 2.2,-2.4 4.1,-4.9 5.6,-7.6 1.3,-2.5 2.6,-3.5 3.9,-2.9 1.2,0.7 1.5,1.6 0.9,2.9 -1.8,3.5 -4.1,6.8 -6.9,9.9 -8,8.8 -17.7,13.1 -29,13.1 -11.4,0 -21,-4.3 -29,-13.1 -2.8,-3.1 -5.2,-6.4 -7,-9.9 -1.2,-2.8 -2.2,-5.2 -3.2,-7.2 -1,-2 -2,-3 -3.1,-3 -1.1,0 -2.1,0.5 -3.1,1.5 -0.5,0.6 -0.6,1.9 -0.1,3.8 0.3,1.4 0.9,3 1.6,4.9 2.4,5.5 5.7,10.6 10,15.2 9.3,10 20.5,15 33.7,15 13.1,0 24.4,-5 33.7,-15 4.3,-4.6 7.6,-9.7 9.9,-15.2 1,-2.4 2.1,-3.3 3.3,-2.7 1.1,0.5 1.5,1.4 1,2.7 -2.6,6.2 -6.2,12 -11,17.2 -10.1,11.1 -22.4,16.7 -36.8,16.7 -14.3,0 -26.6,-5.6 -36.7,-16.7 -4.8,-5.2 -8.4,-11 -11,-17.2 -0.9,-2.4 -1.6,-4.7 -2.4,-6.8 -0.7,-2.1 -1.5,-3.2 -2.6,-3.2 -1,-0.1 -2.1,0.3 -3.1,1.2 -0.6,0.6 -0.7,1.9 -0.4,3.8 0.2,1.4 0.6,3 1.2,5 0,0.2 0.1,0.5 0.2,0.7 2.8,8.2 7.4,15.7 13.6,22.4 11.4,12.2 25.2,18.3 41.3,18.3 16.1,0 29.9,-6.1 41.3,-18.3 6.4,-6.9 11,-14.6 13.8,-23.1 0.6,-2 1.6,-2.8 2.8,-2.4 1.2,0.5 1.7,1.3 1.4,2.4 -3,9.2 -8,17.4 -14.7,24.9 -12.3,13.5 -27.2,20.2 -44.6,20.2 -17.5,0 -32.3,-6.7 -44.7,-20.2 -6.7,-7.5 -11.7,-15.7 -14.7,-24.9 -0.7,-2.4 -1.4,-4.6 -2.2,-6.7 -0.7,-2.1 -1.6,-3.2 -2.5,-3.3 -1,-0.1 -2,0.3 -3,1.2 -0.7,0.6 -0.8,1.9 -0.5,3.8 0.2,1.4 0.6,3 1.2,5 1.8,6 4.2,11.6 7.4,16.9 2.4,4 5.2,7.8 8.4,11.4 0.4,0.5 0.9,1 1.4,1.5 13.6,14.8 30,22 49.2,22.1 17.3,-0.1 32.4,-6 45.2,-18 1.3,-1.3 2.6,-2.6 4,-4.1 1.6,-1.6 3.1,-3.4 4.5,-5.1 5.8,-7.5 10,-15.8 12.6,-24.7 0.7,-2 1.7,-2.8 3,-2.4 1.4,0.5 1.9,1.3 1.7,2.4 -2,7.4 -5,14.4 -9.1,20.9 -2.5,4 -5.4,7.8 -8.6,11.5 -0.1,0.1 -0.2,0.2 -0.4,0.3 -14.6,16.4 -32.3,24.5 -53.1,24.5 -20.7,0 -38.4,-8.1 -53.1,-24.5 -1.9,-2.1 -3.7,-4.2 -5.3,-6.4 -3.3,-4.4 -6.1,-9.1 -8.4,-13.9 -1.9,-4 -3.5,-8.1 -4.7,-12.4 -0.4,-2 -0.9,-3.7 -1.3,-5.1 -0.9,-2.9 -1.8,-4.5 -2.6,-4.6 -1.3,-0.2 -2.4,0 -3.5,0.7 0,0.1 -0.2,0.1 -0.2,0.2 -0.6,0.5 -0.9,1.7 -0.8,3.7 0.1,1.4 0.3,3.1 0.8,5.1 0,0.4 0.2,0.8 0.2,1.2 3.2,15 10.5,28.4 22.1,39.9 15.9,15.9 35.1,23.8 57.5,23.8 22.5,0 41.6,-7.9 57.5,-23.8 6.1,-6 10.9,-12.5 14.5,-19.6 3.4,-6.9 6.3,-10.7 8.8,-11.5 2.9,-1.7 5.5,-1.6 7.8,0.2 3.1,2.4 4,5.8 2.7,10 -0.9,2.5 -4.1,4.6 -9.8,6.4 -3.5,1.3 -6.3,3 -8.5,5 -2.8,2.5 -4.1,6.5 -3.9,12.1 0.2,5.1 1.9,9.2 5.1,12.2 2.2,2.1 5.1,3.6 8.8,4.4 3.2,0.8 11.3,0.8 24.3,0.2 2.9,0 5.5,0.7 8,2.1 l 5,3.3 1.2,-2.1 -3.8,-2.4 c -2.8,-1.8 -6.3,-3 -10.8,-3.8 l -13.2,-1.1 c -6.5,-0.4 -11.1,-1.7 -13.9,-3.9 -2.9,-2.3 -4.5,-5.4 -4.7,-9 -0.3,-4.1 1.2,-7.2 4.4,-9.2 3.7,-2.3 6.7,-3 9,-1.9 l 35.2,12.7 c 0.6,0.2 1.1,0.4 1.7,0.5 2.4,0.5 4.4,0.1 6,-1.2 1.8,-1.6 3.8,-2 5.8,-1.2 l 66.6,26.2 5.2,-10.9 -69.1,-25.4 c -2.1,-1 -2.7,-3 -1.9,-6 1.3,-4.2 0.4,-6.7 -2.8,-7.6 l -44.2,-17.4 c -3.9,-1.6 -7.7,-1.6 -11.3,0.2 -3.4,1.6 -5.4,4.5 -6.1,8.6 -0.5,2.9 -1.5,6.1 -3.3,9.5 -3.4,6.8 -8,13.1 -13.8,19.1 -15.6,15.8 -34.4,23.7 -56.4,23.7 -22.1,0 -40.9,-7.9 -56.4,-23.7 -10.1,-10.3 -16.9,-21.9 -20.5,-34.9 -0.4,-1.5 -0.8,-3.1 -1.1,-4.7 -0.3,-1.1 0.1,-1.9 1.3,-2.4 1.1,-0.4 2,0.4 2.5,2.4 0.3,1.2 0.7,2.5 1.1,3.7 1.1,3.5 2.5,6.9 4.1,10.3 3.6,7.3 8.3,14.1 14,20.4 15,16.3 33,24.4 54.2,24.4 21.1,0 39.1,-8.1 54,-24.4 3.6,-3.8 6.7,-7.8 9.4,-12.1 2.5,-4 4.7,-8.1 6.5,-12.4 1.1,-2.7 2.1,-5.4 2.9,-8.1 0.2,-0.6 0.3,-1.2 0.4,-1.8 0.5,-2 0.8,-3.7 0.8,-5.1 0.2,-2 -0.1,-3.2 -0.8,-3.7 -1.2,-0.8 -2.6,-1.1 -4,-0.9 -1,0.1 -1.9,1.7 -2.9,4.6 -0.5,1.4 -1,3.1 -1.6,5.1 -1.3,4.6 -3,8.9 -5.3,13.1 -1.9,3.5 -4.1,6.9 -6.6,10.2 -1.4,1.7 -2.8,3.3 -4.3,5 -13.3,14.6 -29.4,22 -48.2,22 -18.9,0 -35,-7.4 -48.3,-22 -3.7,-4.1 -6.9,-8.4 -9.6,-12.9 -2.5,-4.2 -4.5,-8.5 -6,-13 -0.3,-0.8 -0.6,-1.6 -0.8,-2.4 -0.3,-1.2 0,-2.1 1.1,-2.6 1,-0.6 1.7,0.3 2.4,2.6 0.1,0.4 0.2,0.7 0.3,1.1 3,9.3 8.2,17.8 15.2,25.4 12.6,13.5 27.8,20.2 45.5,20.2 17.8,0 32.9,-6.7 45.5,-20.2 7.3,-7.9 12.4,-16.7 15.5,-26.5 0.6,-2 0.9,-3.9 0.9,-5.5 0,-1.7 -0.3,-2.8 -0.9,-3.3 -1.1,-0.8 -2.2,-1.1 -3.3,-1 -1,0.2 -1.9,1.4 -2.4,3.5 -0.6,2.2 -1.2,4.3 -1.9,6.3 -2.6,7.8 -6.9,14.9 -12.7,21.4 -11.2,12.2 -24.7,18.3 -40.5,18.3 -15.9,0 -29.4,-6.1 -40.6,-18.3 -5.8,-6.5 -10.2,-13.6 -13,-21.4 -0.2,-1.2 0.2,-2.1 1.3,-2.7 1.1,-0.5 2,0.4 2.8,2.7 2.6,6.9 6.5,13.2 11.8,18.9 10.4,11.1 22.9,16.7 37.5,16.7 14.6,0 27.1,-5.6 37.5,-16.7 5.3,-5.7 9.2,-12 11.8,-18.9 0.6,-2 1.1,-3.6 1.3,-4.9 0.4,-2 0.3,-3.3 -0.3,-3.9 -1,-0.9 -2,-1.3 -3,-1.3 -1.1,0 -2,1.1 -2.7,3.2 -0.7,2 -1.6,4.4 -2.6,6.9 -2.2,4.9 -5.2,9.4 -9,13.6 -9.1,9.9 -20.2,15 -33.1,15 -12.9,0 -23.9,-5.1 -33,-15 -3.8,-4.2 -6.9,-8.7 -9.1,-13.6 -0.5,-1.2 -0.1,-2.1 1.1,-2.8 1.3,-0.7 2.3,-0.2 3.2,1.7 l 0.5,1.1 c 2,4.1 4.6,7.9 7.9,11.4 8.2,8.8 18,13.1 29.5,13.1 11.6,0 21.4,-4.3 29.6,-13.1 3.3,-3.5 5.9,-7.3 7.8,-11.4 1,-1.9 1.7,-3.7 2,-5.3 0.4,-1.6 0.3,-2.8 -0.4,-3.4 -1,-1 -2.1,-1.5 -3.5,-1.5 -0.8,0 -1.6,1 -2.4,3.1 -0.9,2.2 -1.9,4.5 -3.3,7.1 -1.3,2.1 -2.9,4.1 -4.6,6 -6.9,7.6 -15.3,11.4 -25.2,11.4 -9.8,0 -18.2,-3.8 -25.1,-11.4 -1.8,-1.9 -3.3,-3.9 -4.6,-6 -0.8,-1.4 -0.6,-2.4 0.5,-3.1 1.1,-0.7 2.2,-0.1 3.2,1.7 0.2,0.5 0.5,0.9 0.9,1.4 0.9,1.5 2,2.9 3.2,4.2 6,6.5 13.3,9.7 21.8,9.7 8.5,0 15.8,-3.2 21.8,-9.7 1.3,-1.4 2.4,-2.7 3.4,-4.2 1.1,-1.8 1.9,-3.3 2.4,-4.5 0.8,-1.8 1,-3.1 0.6,-3.8 -0.8,-1.1 -1.7,-1.8 -2.7,-1.9 -1.1,-0.2 -1.9,0.4 -2.6,1.9 -0.8,1.4 -2,3.5 -3.9,6.1 -0.3,0.4 -0.6,0.7 -0.9,1.1 -0.1,0.1 -0.2,0.2 -0.4,0.4 -0.2,0.2 -0.4,0.5 -0.7,0.7 -4.8,4.8 -10.5,7.1 -17,7.2 -4.7,-0.1 -8.9,-1.2 -12.6,-3.6 -0.1,-0.1 -0.2,-0.1 -0.3,-0.1 -1.4,-1 -2.9,-2.2 -4.2,-3.5 -1.2,-1.2 -1.5,-2.2 -1,-3 0.5,-0.7 1,-1.1 1.6,-1.1 0.5,0.1 1.2,0.5 2.1,1.5 1,0.9 1.9,1.7 2.8,2.3 0.2,0.1 0.3,0.2 0.5,0.3 3.1,2.1 6.6,3.1 10.6,3.1 3.9,0 7.4,-1 10.6,-3.1 1.6,-1.1 3.2,-2.5 4.6,-4.1 1.2,-1.4 2.2,-2.8 3.1,-4.3 0.7,-1.3 1.4,-2.9 1.9,-4.6 0.4,-1 1,-1.5 1.8,-1.4 l 67.5,1.3 c 5,0 9.3,1.2 12.7,3.5 l 9.4,6 c 3,2.3 6.4,3.4 10.1,3.2 H 352 c 2.5,-0.5 3.9,-2 4.1,-4.6 0.1,-1.8 1.3,-2.7 3.5,-2.7 h 62.8 v -11.3 h -63.6 c -1.6,-0.2 -2.6,-1.6 -2.7,-4.3 -0.2,-3.1 -1.5,-4.6 -3.9,-4.7 h -22.6 c -3.4,-0.3 -6.3,0.5 -8.6,2.4 z" />
	</g><g
   id="g68"
   transform="translate(0,-398)">
		
			<line
   style="fill:none;stroke:#ed1c24;stroke-width:1.79999995;stroke-linecap:round;stroke-linejoin:round;stroke-miterlimit:10"
   id="line60"
   y2="603.29999"
   x2="210.2"
   y1="596.40002"
   x1="210.2"
   stroke-miterlimit="10" />
		
			<line
   style="fill:none;stroke:#ed1c24;stroke-width:1.79999995;stroke-linecap:round;stroke-linejoin:round;stroke-miterlimit:10"
   id="line62"
   y2="596.40002"
   x2="210.2"
   y1="596.40002"
   x1="217.10001"
   stroke-miterlimit="10" />
		
			<line
   style="fill:none;stroke:#ed1c24;stroke-width:1.79999995;stroke-linecap:round;stroke-linejoin:round;stroke-miterlimit:10"
   id="line64"
   y2="589.5"
   x2="210.2"
   y1="596.40002"
   x1="210.2"
   stroke-miterlimit="10" />
		
			<line
   style="fill:none;stroke:#ed1c24;stroke-width:1.79999995;stroke-linecap:round;stroke-linejoin:round;stroke-miterlimit:10"
   id="line66"
   y2="596.40002"
   x2="210.2"
   y1="596.40002"
   x1="203.3"
   stroke-miterlimit="10" />
	</g>
</svg>